<svg width="796" height="673" viewBox="0 0 796 673" fill="none" xmlns="http://www.w3.org/2000/svg">
<circle cx="50.1159" cy="201.433" r="6.26841" transform="rotate(-8.81526 50.1159 201.433)" fill="#DCE2EE"/>
<circle cx="61.6413" cy="275.765" r="6.26841" transform="rotate(-8.81526 61.6413 275.765)" fill="#DCE2EE"/>
<circle cx="73.1706" cy="350.098" r="6.26841" transform="rotate(-8.81526 73.1706 350.098)" fill="#DCE2EE"/>
<circle cx="84.698" cy="424.431" r="6.26841" transform="rotate(-8.81526 84.698 424.431)" fill="#DCE2EE"/>
<circle cx="96.2234" cy="498.763" r="6.26841" transform="rotate(-8.81526 96.2234 498.763)" fill="#DCE2EE"/>
<circle cx="107.753" cy="573.095" r="6.26841" transform="rotate(-8.81526 107.753 573.095)" fill="#DCE2EE"/>
<circle cx="119.28" cy="647.428" r="6.26841" transform="rotate(-8.81526 119.28 647.428)" fill="#DCE2EE"/>
<circle cx="124.448" cy="189.906" r="6.26841" transform="rotate(-8.81526 124.448 189.906)" fill="#DCE2EE"/>
<circle cx="135.975" cy="264.238" r="6.26841" transform="rotate(-8.81526 135.975 264.238)" fill="#DCE2EE"/>
<circle cx="147.501" cy="338.57" r="6.26841" transform="rotate(-8.81526 147.501 338.57)" fill="#DCE2EE"/>
<circle cx="159.03" cy="412.903" r="6.26841" transform="rotate(-8.81526 159.03 412.903)" fill="#DCE2EE"/>
<circle cx="170.557" cy="487.235" r="6.26841" transform="rotate(-8.81526 170.557 487.235)" fill="#DCE2EE"/>
<circle cx="182.083" cy="561.568" r="6.26841" transform="rotate(-8.81526 182.083 561.568)" fill="#DCE2EE"/>
<circle cx="193.612" cy="635.9" r="6.26841" transform="rotate(-8.81526 193.612 635.9)" fill="#DCE2EE"/>
<circle cx="198.778" cy="178.378" r="6.26841" transform="rotate(-8.81526 198.778 178.378)" fill="#DCE2EE"/>
<circle cx="210.305" cy="252.71" r="6.26841" transform="rotate(-8.81526 210.305 252.71)" fill="#DCE2EE"/>
<circle cx="221.835" cy="327.043" r="6.26841" transform="rotate(-8.81526 221.835 327.043)" fill="#DCE2EE"/>
<circle cx="233.362" cy="401.375" r="6.26841" transform="rotate(-8.81526 233.362 401.375)" fill="#DCE2EE"/>
<circle cx="244.891" cy="475.707" r="6.26841" transform="rotate(-8.81526 244.891 475.707)" fill="#DCE2EE"/>
<circle cx="256.419" cy="550.04" r="6.26841" transform="rotate(-8.81526 256.419 550.04)" fill="#DCE2EE"/>
<circle cx="267.944" cy="624.372" r="6.26841" transform="rotate(-8.81526 267.944 624.372)" fill="#DCE2EE"/>
<circle cx="273.112" cy="166.85" r="6.26841" transform="rotate(-8.81526 273.112 166.85)" fill="#DCE2EE"/>
<circle cx="284.639" cy="241.183" r="6.26841" transform="rotate(-8.81526 284.639 241.183)" fill="#DCE2EE"/>
<circle cx="296.167" cy="315.515" r="6.26841" transform="rotate(-8.81526 296.167 315.515)" fill="#DCE2EE"/>
<circle cx="307.696" cy="389.848" r="6.26841" transform="rotate(-8.81526 307.696 389.848)" fill="#DCE2EE"/>
<circle cx="319.221" cy="464.18" r="6.26841" transform="rotate(-8.81526 319.221 464.18)" fill="#DCE2EE"/>
<circle cx="330.749" cy="538.513" r="6.26841" transform="rotate(-8.81526 330.749 538.513)" fill="#DCE2EE"/>
<circle cx="342.276" cy="612.845" r="6.26841" transform="rotate(-8.81526 342.276 612.845)" fill="#DCE2EE"/>
<circle cx="347.444" cy="155.323" r="6.26841" transform="rotate(-8.81526 347.444 155.323)" fill="#DCE2EE"/>
<circle cx="358.973" cy="229.655" r="6.26841" transform="rotate(-8.81526 358.973 229.655)" fill="#DCE2EE"/>
<circle cx="370.499" cy="303.988" r="6.26841" transform="rotate(-8.81526 370.499 303.988)" fill="#DCE2EE"/>
<circle cx="382.026" cy="378.32" r="6.26841" transform="rotate(-8.81526 382.026 378.32)" fill="#DCE2EE"/>
<circle cx="393.555" cy="452.653" r="6.26841" transform="rotate(-8.81526 393.555 452.653)" fill="#DCE2EE"/>
<circle cx="405.083" cy="526.985" r="6.26841" transform="rotate(-8.81526 405.083 526.985)" fill="#DCE2EE"/>
<circle cx="416.61" cy="601.317" r="6.26841" transform="rotate(-8.81526 416.61 601.317)" fill="#DCE2EE"/>
<circle cx="421.778" cy="143.795" r="6.26841" transform="rotate(-8.81526 421.778 143.795)" fill="#DCE2EE"/>
<circle cx="433.305" cy="218.128" r="6.26841" transform="rotate(-8.81526 433.305 218.128)" fill="#DCE2EE"/>
<circle cx="444.831" cy="292.46" r="6.26841" transform="rotate(-8.81526 444.831 292.46)" fill="#DCE2EE"/>
<circle cx="456.36" cy="366.793" r="6.26841" transform="rotate(-8.81526 456.36 366.793)" fill="#DCE2EE"/>
<circle cx="467.887" cy="441.125" r="6.26841" transform="rotate(-8.81526 467.887 441.125)" fill="#DCE2EE"/>
<circle cx="479.413" cy="515.457" r="6.26841" transform="rotate(-8.81526 479.413 515.457)" fill="#DCE2EE"/>
<circle cx="490.942" cy="589.79" r="6.26841" transform="rotate(-8.81526 490.942 589.79)" fill="#DCE2EE"/>
<circle cx="496.108" cy="132.268" r="6.26841" transform="rotate(-8.81526 496.108 132.268)" fill="#DCE2EE"/>
<circle cx="507.637" cy="206.6" r="6.26841" transform="rotate(-8.81526 507.637 206.6)" fill="#DCE2EE"/>
<circle cx="519.165" cy="280.932" r="6.26841" transform="rotate(-8.81526 519.165 280.932)" fill="#DCE2EE"/>
<circle cx="530.69" cy="355.265" r="6.26841" transform="rotate(-8.81526 530.69 355.265)" fill="#DCE2EE"/>
<circle cx="542.219" cy="429.598" r="6.26841" transform="rotate(-8.81526 542.219 429.598)" fill="#DCE2EE"/>
<circle cx="553.747" cy="503.93" r="6.26841" transform="rotate(-8.81526 553.747 503.93)" fill="#DCE2EE"/>
<circle cx="565.274" cy="578.262" r="6.26841" transform="rotate(-8.81526 565.274 578.262)" fill="#DCE2EE"/>
<circle cx="570.442" cy="120.74" r="6.26841" transform="rotate(-8.81526 570.442 120.74)" fill="#DCE2EE"/>
<circle cx="581.969" cy="195.073" r="6.26841" transform="rotate(-8.81526 581.969 195.073)" fill="#DCE2EE"/>
<circle cx="593.495" cy="269.405" r="6.26841" transform="rotate(-8.81526 593.495 269.405)" fill="#DCE2EE"/>
<circle cx="605.024" cy="343.738" r="6.26841" transform="rotate(-8.81526 605.024 343.738)" fill="#DCE2EE"/>
<circle cx="616.551" cy="418.07" r="6.26841" transform="rotate(-8.81526 616.551 418.07)" fill="#DCE2EE"/>
<circle cx="628.081" cy="492.402" r="6.26841" transform="rotate(-8.81526 628.081 492.402)" fill="#DCE2EE"/>
<circle cx="639.606" cy="566.735" r="6.26841" transform="rotate(-8.81526 639.606 566.735)" fill="#DCE2EE"/>
<circle cx="644.774" cy="109.213" r="6.26841" transform="rotate(-8.81526 644.774 109.213)" fill="#DCE2EE"/>
<circle cx="656.303" cy="183.545" r="6.26841" transform="rotate(-8.81526 656.303 183.545)" fill="#DCE2EE"/>
<circle cx="667.829" cy="257.877" r="6.26841" transform="rotate(-8.81526 667.829 257.877)" fill="#DCE2EE"/>
<circle cx="679.356" cy="332.21" r="6.26841" transform="rotate(-8.81526 679.356 332.21)" fill="#DCE2EE"/>
<circle cx="690.883" cy="406.542" r="6.26841" transform="rotate(-8.81526 690.883 406.542)" fill="#DCE2EE"/>
<circle cx="702.411" cy="480.875" r="6.26841" transform="rotate(-8.81526 702.411 480.875)" fill="#DCE2EE"/>
<circle cx="713.938" cy="555.207" r="6.26841" transform="rotate(-8.81526 713.938 555.207)" fill="#DCE2EE"/>
<circle cx="719.106" cy="97.6854" r="6.26841" transform="rotate(-8.81526 719.106 97.6854)" fill="#DCE2EE"/>
<circle cx="730.633" cy="172.017" r="6.26841" transform="rotate(-8.81526 730.633 172.017)" fill="#DCE2EE"/>
<circle cx="742.159" cy="246.35" r="6.26841" transform="rotate(-8.81526 742.159 246.35)" fill="#DCE2EE"/>
<circle cx="753.688" cy="320.682" r="6.26841" transform="rotate(-8.81526 753.688 320.682)" fill="#DCE2EE"/>
<circle cx="765.216" cy="395.015" r="6.26841" transform="rotate(-8.81526 765.216 395.015)" fill="#DCE2EE"/>
<circle cx="776.745" cy="469.347" r="6.26841" transform="rotate(-8.81526 776.745 469.347)" fill="#DCE2EE"/>
<circle cx="788.272" cy="543.68" r="6.26841" transform="rotate(-8.81526 788.272 543.68)" fill="#DCE2EE"/>
<circle cx="742.517" cy="659.702" r="12.5368" fill="#BCE01A"/>
<circle cx="15.3801" cy="534.334" r="15.0442" fill="#16A3B9"/>
<circle cx="626.562" cy="12.802" r="12.5368" fill="#FF7223"/>
</svg>
