<svg width="787" height="658" viewBox="0 0 787 658" fill="none" xmlns="http://www.w3.org/2000/svg">
<circle cx="6.55321" cy="154.188" r="5.74034" transform="rotate(-8.81526 6.55321 154.188)" fill="#DCE2EE"/>
<circle cx="17.1089" cy="222.259" r="5.74034" transform="rotate(-8.81526 17.1089 222.259)" fill="#DCE2EE"/>
<circle cx="27.6655" cy="290.332" r="5.74034" transform="rotate(-8.81526 27.6655 290.332)" fill="#DCE2EE"/>
<circle cx="38.2241" cy="358.402" r="5.74034" transform="rotate(-8.81526 38.2241 358.402)" fill="#DCE2EE"/>
<circle cx="48.7798" cy="426.471" r="5.74034" transform="rotate(-8.81526 48.7798 426.471)" fill="#DCE2EE"/>
<circle cx="59.3364" cy="494.541" r="5.74034" transform="rotate(-8.81526 59.3364 494.541)" fill="#DCE2EE"/>
<circle cx="69.8921" cy="562.611" r="5.74034" transform="rotate(-8.81526 69.8921 562.611)" fill="#DCE2EE"/>
<circle cx="74.6235" cy="143.633" r="5.74034" transform="rotate(-8.81526 74.6235 143.633)" fill="#DCE2EE"/>
<circle cx="85.1811" cy="211.702" r="5.74034" transform="rotate(-8.81526 85.1811 211.702)" fill="#DCE2EE"/>
<circle cx="95.7378" cy="279.773" r="5.74034" transform="rotate(-8.81526 95.7378 279.773)" fill="#DCE2EE"/>
<circle cx="106.293" cy="347.844" r="5.74034" transform="rotate(-8.81526 106.293 347.844)" fill="#DCE2EE"/>
<circle cx="116.849" cy="415.916" r="5.74034" transform="rotate(-8.81526 116.849 415.916)" fill="#DCE2EE"/>
<circle cx="127.406" cy="483.985" r="5.74034" transform="rotate(-8.81526 127.406 483.985)" fill="#DCE2EE"/>
<circle cx="137.962" cy="552.055" r="5.74034" transform="rotate(-8.81526 137.962 552.055)" fill="#DCE2EE"/>
<circle cx="142.696" cy="133.077" r="5.74034" transform="rotate(-8.81526 142.696 133.077)" fill="#DCE2EE"/>
<circle cx="153.25" cy="201.147" r="5.74034" transform="rotate(-8.81526 153.25 201.147)" fill="#DCE2EE"/>
<circle cx="163.807" cy="269.217" r="5.74034" transform="rotate(-8.81526 163.807 269.217)" fill="#DCE2EE"/>
<circle cx="174.364" cy="337.288" r="5.74034" transform="rotate(-8.81526 174.364 337.288)" fill="#DCE2EE"/>
<circle cx="184.92" cy="405.359" r="5.74034" transform="rotate(-8.81526 184.92 405.359)" fill="#DCE2EE"/>
<circle cx="195.476" cy="473.428" r="5.74034" transform="rotate(-8.81526 195.476 473.428)" fill="#DCE2EE"/>
<circle cx="206.033" cy="541.5" r="5.74034" transform="rotate(-8.81526 206.033 541.5)" fill="#DCE2EE"/>
<circle cx="210.765" cy="122.52" r="5.74034" transform="rotate(-8.81526 210.765 122.52)" fill="#DCE2EE"/>
<circle cx="221.321" cy="190.59" r="5.74034" transform="rotate(-8.81526 221.321 190.59)" fill="#DCE2EE"/>
<circle cx="231.878" cy="258.661" r="5.74034" transform="rotate(-8.81526 231.878 258.661)" fill="#DCE2EE"/>
<circle cx="242.434" cy="326.731" r="5.74034" transform="rotate(-8.81526 242.434 326.731)" fill="#DCE2EE"/>
<circle cx="252.99" cy="394.802" r="5.74034" transform="rotate(-8.81526 252.99 394.802)" fill="#DCE2EE"/>
<circle cx="263.546" cy="462.872" r="5.74034" transform="rotate(-8.81526 263.546 462.872)" fill="#DCE2EE"/>
<circle cx="274.102" cy="530.942" r="5.74034" transform="rotate(-8.81526 274.102 530.942)" fill="#DCE2EE"/>
<circle cx="278.835" cy="111.964" r="5.74034" transform="rotate(-8.81526 278.835 111.964)" fill="#DCE2EE"/>
<circle cx="289.392" cy="180.034" r="5.74034" transform="rotate(-8.81526 289.392 180.034)" fill="#DCE2EE"/>
<circle cx="299.947" cy="248.104" r="5.74034" transform="rotate(-8.81526 299.947 248.104)" fill="#DCE2EE"/>
<circle cx="310.503" cy="316.175" r="5.74034" transform="rotate(-8.81526 310.503 316.175)" fill="#DCE2EE"/>
<circle cx="321.06" cy="384.245" r="5.74034" transform="rotate(-8.81526 321.06 384.245)" fill="#DCE2EE"/>
<circle cx="331.617" cy="452.316" r="5.74034" transform="rotate(-8.81526 331.617 452.316)" fill="#DCE2EE"/>
<circle cx="342.173" cy="520.386" r="5.74034" transform="rotate(-8.81526 342.173 520.386)" fill="#DCE2EE"/>
<circle cx="346.905" cy="101.409" r="5.74034" transform="rotate(-8.81526 346.905 101.409)" fill="#DCE2EE"/>
<circle cx="357.461" cy="169.478" r="5.74034" transform="rotate(-8.81526 357.461 169.478)" fill="#DCE2EE"/>
<circle cx="368.018" cy="237.548" r="5.74034" transform="rotate(-8.81526 368.018 237.548)" fill="#DCE2EE"/>
<circle cx="378.574" cy="305.618" r="5.74034" transform="rotate(-8.81526 378.574 305.618)" fill="#DCE2EE"/>
<circle cx="389.13" cy="373.687" r="5.74034" transform="rotate(-8.81526 389.13 373.687)" fill="#DCE2EE"/>
<circle cx="399.688" cy="441.761" r="5.74034" transform="rotate(-8.81526 399.688 441.761)" fill="#DCE2EE"/>
<circle cx="410.245" cy="509.83" r="5.74034" transform="rotate(-8.81526 410.245 509.83)" fill="#DCE2EE"/>
<circle cx="414.976" cy="90.8509" r="5.74034" transform="rotate(-8.81526 414.976 90.8509)" fill="#DCE2EE"/>
<circle cx="425.532" cy="158.922" r="5.74034" transform="rotate(-8.81526 425.532 158.922)" fill="#DCE2EE"/>
<circle cx="436.088" cy="226.993" r="5.74034" transform="rotate(-8.81526 436.088 226.993)" fill="#DCE2EE"/>
<circle cx="446.647" cy="295.062" r="5.74034" transform="rotate(-8.81526 446.647 295.062)" fill="#DCE2EE"/>
<circle cx="457.202" cy="363.132" r="5.74034" transform="rotate(-8.81526 457.202 363.132)" fill="#DCE2EE"/>
<circle cx="467.758" cy="431.201" r="5.74034" transform="rotate(-8.81526 467.758 431.201)" fill="#DCE2EE"/>
<circle cx="478.314" cy="499.273" r="5.74034" transform="rotate(-8.81526 478.314 499.273)" fill="#DCE2EE"/>
<circle cx="483.045" cy="80.2931" r="5.74034" transform="rotate(-8.81526 483.045 80.2931)" fill="#DCE2EE"/>
<circle cx="493.602" cy="148.365" r="5.74034" transform="rotate(-8.81526 493.602 148.365)" fill="#DCE2EE"/>
<circle cx="504.158" cy="216.436" r="5.74034" transform="rotate(-8.81526 504.158 216.436)" fill="#DCE2EE"/>
<circle cx="514.714" cy="284.507" r="5.74034" transform="rotate(-8.81526 514.714 284.507)" fill="#DCE2EE"/>
<circle cx="525.271" cy="352.576" r="5.74034" transform="rotate(-8.81526 525.271 352.576)" fill="#DCE2EE"/>
<circle cx="535.829" cy="420.646" r="5.74034" transform="rotate(-8.81526 535.829 420.646)" fill="#DCE2EE"/>
<circle cx="546.384" cy="488.715" r="5.74034" transform="rotate(-8.81526 546.384 488.715)" fill="#DCE2EE"/>
<circle cx="551.116" cy="69.7376" r="5.74034" transform="rotate(-8.81526 551.116 69.7376)" fill="#DCE2EE"/>
<circle cx="561.672" cy="137.807" r="5.74034" transform="rotate(-8.81526 561.672 137.807)" fill="#DCE2EE"/>
<circle cx="572.228" cy="205.879" r="5.74034" transform="rotate(-8.81526 572.228 205.879)" fill="#DCE2EE"/>
<circle cx="582.788" cy="273.949" r="5.74034" transform="rotate(-8.81526 582.788 273.949)" fill="#DCE2EE"/>
<circle cx="593.343" cy="342.02" r="5.74034" transform="rotate(-8.81526 593.343 342.02)" fill="#DCE2EE"/>
<circle cx="603.898" cy="410.09" r="5.74034" transform="rotate(-8.81526 603.898 410.09)" fill="#DCE2EE"/>
<circle cx="614.454" cy="478.16" r="5.74034" transform="rotate(-8.81526 614.454 478.16)" fill="#DCE2EE"/>
<circle cx="619.187" cy="59.1815" r="5.74034" transform="rotate(-8.81526 619.187 59.1815)" fill="#DCE2EE"/>
<circle cx="629.742" cy="127.252" r="5.74034" transform="rotate(-8.81526 629.742 127.252)" fill="#DCE2EE"/>
<circle cx="640.299" cy="195.323" r="5.74034" transform="rotate(-8.81526 640.299 195.323)" fill="#DCE2EE"/>
<circle cx="650.857" cy="263.393" r="5.74034" transform="rotate(-8.81526 650.857 263.393)" fill="#DCE2EE"/>
<circle cx="661.411" cy="331.464" r="5.74034" transform="rotate(-8.81526 661.411 331.464)" fill="#DCE2EE"/>
<circle cx="671.968" cy="399.533" r="5.74034" transform="rotate(-8.81526 671.968 399.533)" fill="#DCE2EE"/>
<circle cx="682.528" cy="467.604" r="5.74034" transform="rotate(-8.81526 682.528 467.604)" fill="#DCE2EE"/>
<circle cx="141.511" cy="635.139" r="22.8608" fill="#BCE01A"/>
<circle cx="111.233" cy="40.2785" r="40.2785" fill="#16A3B9"/>
<circle cx="774.5" cy="617.5" r="12.5" fill="#FF7223"/>
</svg>
