<svg width="787" height="801" viewBox="0 0 787 801" fill="none" xmlns="http://www.w3.org/2000/svg">
<circle cx="6.55321" cy="297.188" r="5.74034" transform="rotate(-8.81526 6.55321 297.188)" fill="#DCE2EE"/>
<circle cx="17.109" cy="365.259" r="5.74034" transform="rotate(-8.81526 17.109 365.259)" fill="#DCE2EE"/>
<circle cx="27.6655" cy="433.332" r="5.74034" transform="rotate(-8.81526 27.6655 433.332)" fill="#DCE2EE"/>
<circle cx="38.2241" cy="501.402" r="5.74034" transform="rotate(-8.81526 38.2241 501.402)" fill="#DCE2EE"/>
<circle cx="48.7798" cy="569.471" r="5.74034" transform="rotate(-8.81526 48.7798 569.471)" fill="#DCE2EE"/>
<circle cx="59.3362" cy="637.541" r="5.74034" transform="rotate(-8.81526 59.3362 637.541)" fill="#DCE2EE"/>
<circle cx="69.8921" cy="705.611" r="5.74034" transform="rotate(-8.81526 69.8921 705.611)" fill="#DCE2EE"/>
<circle cx="74.6235" cy="286.633" r="5.74034" transform="rotate(-8.81526 74.6235 286.633)" fill="#DCE2EE"/>
<circle cx="85.1811" cy="354.702" r="5.74034" transform="rotate(-8.81526 85.1811 354.702)" fill="#DCE2EE"/>
<circle cx="95.7375" cy="422.773" r="5.74034" transform="rotate(-8.81526 95.7375 422.773)" fill="#DCE2EE"/>
<circle cx="106.293" cy="490.844" r="5.74034" transform="rotate(-8.81526 106.293 490.844)" fill="#DCE2EE"/>
<circle cx="116.849" cy="558.916" r="5.74034" transform="rotate(-8.81526 116.849 558.916)" fill="#DCE2EE"/>
<circle cx="127.406" cy="626.985" r="5.74034" transform="rotate(-8.81526 127.406 626.985)" fill="#DCE2EE"/>
<circle cx="137.963" cy="695.055" r="5.74034" transform="rotate(-8.81526 137.963 695.055)" fill="#DCE2EE"/>
<circle cx="142.696" cy="276.077" r="5.74034" transform="rotate(-8.81526 142.696 276.077)" fill="#DCE2EE"/>
<circle cx="153.25" cy="344.147" r="5.74034" transform="rotate(-8.81526 153.25 344.147)" fill="#DCE2EE"/>
<circle cx="163.807" cy="412.217" r="5.74034" transform="rotate(-8.81526 163.807 412.217)" fill="#DCE2EE"/>
<circle cx="174.364" cy="480.288" r="5.74034" transform="rotate(-8.81526 174.364 480.288)" fill="#DCE2EE"/>
<circle cx="184.92" cy="548.359" r="5.74034" transform="rotate(-8.81526 184.92 548.359)" fill="#DCE2EE"/>
<circle cx="195.476" cy="616.428" r="5.74034" transform="rotate(-8.81526 195.476 616.428)" fill="#DCE2EE"/>
<circle cx="206.033" cy="684.5" r="5.74034" transform="rotate(-8.81526 206.033 684.5)" fill="#DCE2EE"/>
<circle cx="210.765" cy="265.52" r="5.74034" transform="rotate(-8.81526 210.765 265.52)" fill="#DCE2EE"/>
<circle cx="221.321" cy="333.59" r="5.74034" transform="rotate(-8.81526 221.321 333.59)" fill="#DCE2EE"/>
<circle cx="231.878" cy="401.661" r="5.74034" transform="rotate(-8.81526 231.878 401.661)" fill="#DCE2EE"/>
<circle cx="242.434" cy="469.731" r="5.74034" transform="rotate(-8.81526 242.434 469.731)" fill="#DCE2EE"/>
<circle cx="252.99" cy="537.802" r="5.74034" transform="rotate(-8.81526 252.99 537.802)" fill="#DCE2EE"/>
<circle cx="263.546" cy="605.872" r="5.74034" transform="rotate(-8.81526 263.546 605.872)" fill="#DCE2EE"/>
<circle cx="274.102" cy="673.942" r="5.74034" transform="rotate(-8.81526 274.102 673.942)" fill="#DCE2EE"/>
<circle cx="278.835" cy="254.964" r="5.74034" transform="rotate(-8.81526 278.835 254.964)" fill="#DCE2EE"/>
<circle cx="289.392" cy="323.034" r="5.74034" transform="rotate(-8.81526 289.392 323.034)" fill="#DCE2EE"/>
<circle cx="299.947" cy="391.104" r="5.74034" transform="rotate(-8.81526 299.947 391.104)" fill="#DCE2EE"/>
<circle cx="310.503" cy="459.175" r="5.74034" transform="rotate(-8.81526 310.503 459.175)" fill="#DCE2EE"/>
<circle cx="321.06" cy="527.245" r="5.74034" transform="rotate(-8.81526 321.06 527.245)" fill="#DCE2EE"/>
<circle cx="331.617" cy="595.316" r="5.74034" transform="rotate(-8.81526 331.617 595.316)" fill="#DCE2EE"/>
<circle cx="342.173" cy="663.386" r="5.74034" transform="rotate(-8.81526 342.173 663.386)" fill="#DCE2EE"/>
<circle cx="346.905" cy="244.409" r="5.74034" transform="rotate(-8.81526 346.905 244.409)" fill="#DCE2EE"/>
<circle cx="357.462" cy="312.478" r="5.74034" transform="rotate(-8.81526 357.462 312.478)" fill="#DCE2EE"/>
<circle cx="368.018" cy="380.548" r="5.74034" transform="rotate(-8.81526 368.018 380.548)" fill="#DCE2EE"/>
<circle cx="378.573" cy="448.618" r="5.74034" transform="rotate(-8.81526 378.573 448.618)" fill="#DCE2EE"/>
<circle cx="389.13" cy="516.687" r="5.74034" transform="rotate(-8.81526 389.13 516.687)" fill="#DCE2EE"/>
<circle cx="399.688" cy="584.761" r="5.74034" transform="rotate(-8.81526 399.688 584.761)" fill="#DCE2EE"/>
<circle cx="410.245" cy="652.83" r="5.74034" transform="rotate(-8.81526 410.245 652.83)" fill="#DCE2EE"/>
<circle cx="414.976" cy="233.851" r="5.74034" transform="rotate(-8.81526 414.976 233.851)" fill="#DCE2EE"/>
<circle cx="425.532" cy="301.922" r="5.74034" transform="rotate(-8.81526 425.532 301.922)" fill="#DCE2EE"/>
<circle cx="436.088" cy="369.993" r="5.74034" transform="rotate(-8.81526 436.088 369.993)" fill="#DCE2EE"/>
<circle cx="446.647" cy="438.062" r="5.74034" transform="rotate(-8.81526 446.647 438.062)" fill="#DCE2EE"/>
<circle cx="457.202" cy="506.132" r="5.74034" transform="rotate(-8.81526 457.202 506.132)" fill="#DCE2EE"/>
<circle cx="467.758" cy="574.201" r="5.74034" transform="rotate(-8.81526 467.758 574.201)" fill="#DCE2EE"/>
<circle cx="478.314" cy="642.273" r="5.74034" transform="rotate(-8.81526 478.314 642.273)" fill="#DCE2EE"/>
<circle cx="483.045" cy="223.293" r="5.74034" transform="rotate(-8.81526 483.045 223.293)" fill="#DCE2EE"/>
<circle cx="493.602" cy="291.365" r="5.74034" transform="rotate(-8.81526 493.602 291.365)" fill="#DCE2EE"/>
<circle cx="504.158" cy="359.436" r="5.74034" transform="rotate(-8.81526 504.158 359.436)" fill="#DCE2EE"/>
<circle cx="514.714" cy="427.507" r="5.74034" transform="rotate(-8.81526 514.714 427.507)" fill="#DCE2EE"/>
<circle cx="525.271" cy="495.576" r="5.74034" transform="rotate(-8.81526 525.271 495.576)" fill="#DCE2EE"/>
<circle cx="535.828" cy="563.646" r="5.74034" transform="rotate(-8.81526 535.828 563.646)" fill="#DCE2EE"/>
<circle cx="546.384" cy="631.715" r="5.74034" transform="rotate(-8.81526 546.384 631.715)" fill="#DCE2EE"/>
<circle cx="551.116" cy="212.738" r="5.74034" transform="rotate(-8.81526 551.116 212.738)" fill="#DCE2EE"/>
<circle cx="561.672" cy="280.807" r="5.74034" transform="rotate(-8.81526 561.672 280.807)" fill="#DCE2EE"/>
<circle cx="572.228" cy="348.879" r="5.74034" transform="rotate(-8.81526 572.228 348.879)" fill="#DCE2EE"/>
<circle cx="582.787" cy="416.949" r="5.74034" transform="rotate(-8.81526 582.787 416.949)" fill="#DCE2EE"/>
<circle cx="593.343" cy="485.02" r="5.74034" transform="rotate(-8.81526 593.343 485.02)" fill="#DCE2EE"/>
<circle cx="603.898" cy="553.09" r="5.74034" transform="rotate(-8.81526 603.898 553.09)" fill="#DCE2EE"/>
<circle cx="614.454" cy="621.16" r="5.74034" transform="rotate(-8.81526 614.454 621.16)" fill="#DCE2EE"/>
<circle cx="619.187" cy="202.182" r="5.74034" transform="rotate(-8.81526 619.187 202.182)" fill="#DCE2EE"/>
<circle cx="629.742" cy="270.252" r="5.74034" transform="rotate(-8.81526 629.742 270.252)" fill="#DCE2EE"/>
<circle cx="640.299" cy="338.323" r="5.74034" transform="rotate(-8.81526 640.299 338.323)" fill="#DCE2EE"/>
<circle cx="650.857" cy="406.393" r="5.74034" transform="rotate(-8.81526 650.857 406.393)" fill="#DCE2EE"/>
<circle cx="661.411" cy="474.463" r="5.74034" transform="rotate(-8.81526 661.411 474.463)" fill="#DCE2EE"/>
<circle cx="671.968" cy="542.533" r="5.74034" transform="rotate(-8.81526 671.968 542.533)" fill="#DCE2EE"/>
<circle cx="682.528" cy="610.604" r="5.74034" transform="rotate(-8.81526 682.528 610.604)" fill="#DCE2EE"/>
<circle cx="141.511" cy="778.139" r="22.8608" fill="#BCE01A"/>
<circle cx="111.232" cy="40.2785" r="40.2785" fill="#16A3B9"/>
<circle cx="774.5" cy="760.5" r="12.5" fill="#FF7223"/>
</svg>
