<svg width="567" height="480" viewBox="0 0 567 480" fill="none" xmlns="http://www.w3.org/2000/svg">
<circle cx="35.4989" cy="144.141" r="4.47015" transform="rotate(-8.81526 35.4989 144.141)" fill="#DCE2EE"/>
<circle cx="43.7196" cy="197.148" r="4.47015" transform="rotate(-8.81526 43.7196 197.148)" fill="#DCE2EE"/>
<circle cx="51.9403" cy="250.156" r="4.47015" transform="rotate(-8.81526 51.9403 250.156)" fill="#DCE2EE"/>
<circle cx="60.16" cy="303.168" r="4.47015" transform="rotate(-8.81526 60.16 303.168)" fill="#DCE2EE"/>
<circle cx="68.3807" cy="356.176" r="4.47015" transform="rotate(-8.81526 68.3807 356.176)" fill="#DCE2EE"/>
<circle cx="76.6014" cy="409.184" r="4.47015" transform="rotate(-8.81526 76.6014 409.184)" fill="#DCE2EE"/>
<circle cx="84.8221" cy="462.193" r="4.47015" transform="rotate(-8.81526 84.8221 462.193)" fill="#DCE2EE"/>
<circle cx="88.5067" cy="135.922" r="4.47015" transform="rotate(-8.81526 88.5067 135.922)" fill="#DCE2EE"/>
<circle cx="96.7274" cy="188.93" r="4.47015" transform="rotate(-8.81526 96.7274 188.93)" fill="#DCE2EE"/>
<circle cx="104.948" cy="241.937" r="4.47015" transform="rotate(-8.81526 104.948 241.937)" fill="#DCE2EE"/>
<circle cx="113.17" cy="294.945" r="4.47015" transform="rotate(-8.81526 113.17 294.945)" fill="#DCE2EE"/>
<circle cx="121.389" cy="347.953" r="4.47015" transform="rotate(-8.81526 121.389 347.953)" fill="#DCE2EE"/>
<circle cx="129.609" cy="400.963" r="4.47015" transform="rotate(-8.81526 129.609 400.963)" fill="#DCE2EE"/>
<circle cx="137.83" cy="453.971" r="4.47015" transform="rotate(-8.81526 137.83 453.971)" fill="#DCE2EE"/>
<circle cx="141.515" cy="127.699" r="4.47015" transform="rotate(-8.81526 141.515 127.699)" fill="#DCE2EE"/>
<circle cx="149.735" cy="180.709" r="4.47015" transform="rotate(-8.81526 149.735 180.709)" fill="#DCE2EE"/>
<circle cx="157.956" cy="233.717" r="4.47015" transform="rotate(-8.81526 157.956 233.717)" fill="#DCE2EE"/>
<circle cx="166.178" cy="286.724" r="4.47015" transform="rotate(-8.81526 166.178 286.724)" fill="#DCE2EE"/>
<circle cx="174.396" cy="339.732" r="4.47015" transform="rotate(-8.81526 174.396 339.732)" fill="#DCE2EE"/>
<circle cx="182.617" cy="392.742" r="4.47015" transform="rotate(-8.81526 182.617 392.742)" fill="#DCE2EE"/>
<circle cx="190.838" cy="445.752" r="4.47015" transform="rotate(-8.81526 190.838 445.752)" fill="#DCE2EE"/>
<circle cx="194.522" cy="119.478" r="4.47015" transform="rotate(-8.81526 194.522 119.478)" fill="#DCE2EE"/>
<circle cx="202.743" cy="172.488" r="4.47015" transform="rotate(-8.81526 202.743 172.488)" fill="#DCE2EE"/>
<circle cx="210.965" cy="225.494" r="4.47015" transform="rotate(-8.81526 210.965 225.494)" fill="#DCE2EE"/>
<circle cx="219.185" cy="278.504" r="4.47015" transform="rotate(-8.81526 219.185 278.504)" fill="#DCE2EE"/>
<circle cx="227.407" cy="331.514" r="4.47015" transform="rotate(-8.81526 227.407 331.514)" fill="#DCE2EE"/>
<circle cx="235.626" cy="384.521" r="4.47015" transform="rotate(-8.81526 235.626 384.521)" fill="#DCE2EE"/>
<circle cx="243.847" cy="437.531" r="4.47015" transform="rotate(-8.81526 243.847 437.531)" fill="#DCE2EE"/>
<circle cx="247.531" cy="111.26" r="4.47015" transform="rotate(-8.81526 247.531 111.26)" fill="#DCE2EE"/>
<circle cx="255.752" cy="164.267" r="4.47015" transform="rotate(-8.81526 255.752 164.267)" fill="#DCE2EE"/>
<circle cx="263.972" cy="217.275" r="4.47015" transform="rotate(-8.81526 263.972 217.275)" fill="#DCE2EE"/>
<circle cx="272.193" cy="270.283" r="4.47015" transform="rotate(-8.81526 272.193 270.283)" fill="#DCE2EE"/>
<circle cx="280.415" cy="323.293" r="4.47015" transform="rotate(-8.81526 280.415 323.293)" fill="#DCE2EE"/>
<circle cx="288.636" cy="376.301" r="4.47015" transform="rotate(-8.81526 288.636 376.301)" fill="#DCE2EE"/>
<circle cx="296.853" cy="429.309" r="4.47015" transform="rotate(-8.81526 296.853 429.309)" fill="#DCE2EE"/>
<circle cx="300.541" cy="103.037" r="4.47015" transform="rotate(-8.81526 300.541 103.037)" fill="#DCE2EE"/>
<circle cx="308.76" cy="156.045" r="4.47015" transform="rotate(-8.81526 308.76 156.045)" fill="#DCE2EE"/>
<circle cx="316.98" cy="209.055" r="4.47015" transform="rotate(-8.81526 316.98 209.055)" fill="#DCE2EE"/>
<circle cx="325.202" cy="262.062" r="4.47015" transform="rotate(-8.81526 325.202 262.062)" fill="#DCE2EE"/>
<circle cx="333.423" cy="315.072" r="4.47015" transform="rotate(-8.81526 333.423 315.072)" fill="#DCE2EE"/>
<circle cx="341.643" cy="368.082" r="4.47015" transform="rotate(-8.81526 341.643 368.082)" fill="#DCE2EE"/>
<circle cx="349.862" cy="421.088" r="4.47015" transform="rotate(-8.81526 349.862 421.088)" fill="#DCE2EE"/>
<circle cx="353.549" cy="94.8182" r="4.47015" transform="rotate(-8.81526 353.549 94.8182)" fill="#DCE2EE"/>
<circle cx="361.769" cy="147.826" r="4.47015" transform="rotate(-8.81526 361.769 147.826)" fill="#DCE2EE"/>
<circle cx="369.988" cy="200.836" r="4.47015" transform="rotate(-8.81526 369.988 200.836)" fill="#DCE2EE"/>
<circle cx="378.21" cy="253.842" r="4.47015" transform="rotate(-8.81526 378.21 253.842)" fill="#DCE2EE"/>
<circle cx="386.431" cy="306.851" r="4.47015" transform="rotate(-8.81526 386.431 306.851)" fill="#DCE2EE"/>
<circle cx="394.651" cy="359.859" r="4.47015" transform="rotate(-8.81526 394.651 359.859)" fill="#DCE2EE"/>
<circle cx="402.872" cy="412.867" r="4.47015" transform="rotate(-8.81526 402.872 412.867)" fill="#DCE2EE"/>
<circle cx="406.556" cy="86.5975" r="4.47015" transform="rotate(-8.81526 406.556 86.5975)" fill="#DCE2EE"/>
<circle cx="414.777" cy="139.605" r="4.47015" transform="rotate(-8.81526 414.777 139.605)" fill="#DCE2EE"/>
<circle cx="422.996" cy="192.613" r="4.47015" transform="rotate(-8.81526 422.996 192.613)" fill="#DCE2EE"/>
<circle cx="431.218" cy="245.621" r="4.47015" transform="rotate(-8.81526 431.218 245.621)" fill="#DCE2EE"/>
<circle cx="439.438" cy="298.631" r="4.47015" transform="rotate(-8.81526 439.438 298.631)" fill="#DCE2EE"/>
<circle cx="447.659" cy="351.639" r="4.47015" transform="rotate(-8.81526 447.659 351.639)" fill="#DCE2EE"/>
<circle cx="455.88" cy="404.648" r="4.47015" transform="rotate(-8.81526 455.88 404.648)" fill="#DCE2EE"/>
<circle cx="459.564" cy="78.3768" r="4.47015" transform="rotate(-8.81526 459.564 78.3768)" fill="#DCE2EE"/>
<circle cx="467.785" cy="131.385" r="4.47015" transform="rotate(-8.81526 467.785 131.385)" fill="#DCE2EE"/>
<circle cx="476.007" cy="184.392" r="4.47015" transform="rotate(-8.81526 476.007 184.392)" fill="#DCE2EE"/>
<circle cx="484.225" cy="237.4" r="4.47015" transform="rotate(-8.81526 484.225 237.4)" fill="#DCE2EE"/>
<circle cx="492.447" cy="290.408" r="4.47015" transform="rotate(-8.81526 492.447 290.408)" fill="#DCE2EE"/>
<circle cx="500.668" cy="343.418" r="4.47015" transform="rotate(-8.81526 500.668 343.418)" fill="#DCE2EE"/>
<circle cx="508.889" cy="396.428" r="4.47015" transform="rotate(-8.81526 508.889 396.428)" fill="#DCE2EE"/>
<circle cx="512.573" cy="70.1561" r="4.47015" transform="rotate(-8.81526 512.573 70.1561)" fill="#DCE2EE"/>
<circle cx="520.794" cy="123.164" r="4.47015" transform="rotate(-8.81526 520.794 123.164)" fill="#DCE2EE"/>
<circle cx="529.015" cy="176.174" r="4.47015" transform="rotate(-8.81526 529.015 176.174)" fill="#DCE2EE"/>
<circle cx="537.235" cy="229.182" r="4.47015" transform="rotate(-8.81526 537.235 229.182)" fill="#DCE2EE"/>
<circle cx="545.454" cy="282.189" r="4.47015" transform="rotate(-8.81526 545.454 282.189)" fill="#DCE2EE"/>
<circle cx="553.676" cy="335.199" r="4.47015" transform="rotate(-8.81526 553.676 335.199)" fill="#DCE2EE"/>
<circle cx="561.896" cy="388.205" r="4.47015" transform="rotate(-8.81526 561.896 388.205)" fill="#DCE2EE"/>
<circle cx="529.266" cy="470.944" r="8.94031" fill="#BCE01A"/>
<circle cx="10.7284" cy="381.541" r="10.7284" fill="#16A3B9"/>
<circle cx="438.969" cy="9.6239" r="8.94031" fill="#FF7223"/>
</svg>
