<svg width="31" height="31" viewBox="0 0 31 31" fill="none" xmlns="http://www.w3.org/2000/svg">
<path d="M15.5 0C24.0603 0 31 6.93958 31 15.5C31 24.0603 24.0603 31 15.5 31C6.93958 31 0 24.0603 0 15.5C0 6.93958 6.93958 0 15.5 0ZM20.4905 10.803L13.5625 17.7309L10.5095 14.678C10.0555 14.224 9.31947 14.224 8.86549 14.678C8.41151 15.132 8.41151 15.868 8.86549 16.322L12.7405 20.197C13.1945 20.651 13.9305 20.651 14.3845 20.197L22.1345 12.447C22.5885 11.993 22.5885 11.257 22.1345 10.803C21.6805 10.349 20.9445 10.349 20.4905 10.803Z" fill="#7BD15C"/>
</svg>
