<svg width="759" height="703" viewBox="0 0 759 703" fill="none" xmlns="http://www.w3.org/2000/svg">
<circle cx="47.5013" cy="252.951" r="5.98145" transform="rotate(-8.81526 47.5013 252.951)" fill="#DCE2EE"/>
<circle cx="58.5023" cy="323.881" r="5.98145" transform="rotate(-8.81526 58.5023 323.881)" fill="#DCE2EE"/>
<circle cx="69.5013" cy="394.811" r="5.98145" transform="rotate(-8.81526 69.5013 394.811)" fill="#DCE2EE"/>
<circle cx="80.5003" cy="465.74" r="5.98145" transform="rotate(-8.81526 80.5003 465.74)" fill="#DCE2EE"/>
<circle cx="91.4993" cy="536.67" r="5.98145" transform="rotate(-8.81526 91.4993 536.67)" fill="#DCE2EE"/>
<circle cx="102.5" cy="607.599" r="5.98145" transform="rotate(-8.81526 102.5 607.599)" fill="#DCE2EE"/>
<circle cx="113.5" cy="678.529" r="5.98145" transform="rotate(-8.81526 113.5 678.529)" fill="#DCE2EE"/>
<circle cx="118.43" cy="241.951" r="5.98145" transform="rotate(-8.81526 118.43 241.951)" fill="#DCE2EE"/>
<circle cx="129.431" cy="312.881" r="5.98145" transform="rotate(-8.81526 129.431 312.881)" fill="#DCE2EE"/>
<circle cx="140.432" cy="383.811" r="5.98145" transform="rotate(-8.81526 140.432 383.811)" fill="#DCE2EE"/>
<circle cx="151.431" cy="454.74" r="5.98145" transform="rotate(-8.81526 151.431 454.74)" fill="#DCE2EE"/>
<circle cx="162.43" cy="525.67" r="5.98145" transform="rotate(-8.81526 162.43 525.67)" fill="#DCE2EE"/>
<circle cx="173.429" cy="596.6" r="5.98145" transform="rotate(-8.81526 173.429 596.6)" fill="#DCE2EE"/>
<circle cx="184.43" cy="667.529" r="5.98145" transform="rotate(-8.81526 184.43 667.529)" fill="#DCE2EE"/>
<circle cx="189.36" cy="230.952" r="5.98145" transform="rotate(-8.81526 189.36 230.952)" fill="#DCE2EE"/>
<circle cx="200.36" cy="301.881" r="5.98145" transform="rotate(-8.81526 200.36 301.881)" fill="#DCE2EE"/>
<circle cx="211.361" cy="372.811" r="5.98145" transform="rotate(-8.81526 211.361 372.811)" fill="#DCE2EE"/>
<circle cx="222.36" cy="443.741" r="5.98145" transform="rotate(-8.81526 222.36 443.741)" fill="#DCE2EE"/>
<circle cx="233.359" cy="514.67" r="5.98145" transform="rotate(-8.81526 233.359 514.67)" fill="#DCE2EE"/>
<circle cx="244.359" cy="585.6" r="5.98145" transform="rotate(-8.81526 244.359 585.6)" fill="#DCE2EE"/>
<circle cx="255.359" cy="656.529" r="5.98145" transform="rotate(-8.81526 255.359 656.529)" fill="#DCE2EE"/>
<circle cx="260.289" cy="219.952" r="5.98145" transform="rotate(-8.81526 260.289 219.952)" fill="#DCE2EE"/>
<circle cx="271.289" cy="290.882" r="5.98145" transform="rotate(-8.81526 271.289 290.882)" fill="#DCE2EE"/>
<circle cx="282.289" cy="361.811" r="5.98145" transform="rotate(-8.81526 282.289 361.811)" fill="#DCE2EE"/>
<circle cx="293.29" cy="432.74" r="5.98145" transform="rotate(-8.81526 293.29 432.74)" fill="#DCE2EE"/>
<circle cx="304.289" cy="503.671" r="5.98145" transform="rotate(-8.81526 304.289 503.671)" fill="#DCE2EE"/>
<circle cx="315.288" cy="574.599" r="5.98145" transform="rotate(-8.81526 315.288 574.599)" fill="#DCE2EE"/>
<circle cx="326.288" cy="645.529" r="5.98145" transform="rotate(-8.81526 326.288 645.529)" fill="#DCE2EE"/>
<circle cx="331.218" cy="208.952" r="5.98145" transform="rotate(-8.81526 331.218 208.952)" fill="#DCE2EE"/>
<circle cx="342.219" cy="279.882" r="5.98145" transform="rotate(-8.81526 342.219 279.882)" fill="#DCE2EE"/>
<circle cx="353.218" cy="350.811" r="5.98145" transform="rotate(-8.81526 353.218 350.811)" fill="#DCE2EE"/>
<circle cx="364.219" cy="421.741" r="5.98145" transform="rotate(-8.81526 364.219 421.741)" fill="#DCE2EE"/>
<circle cx="375.22" cy="492.671" r="5.98145" transform="rotate(-8.81526 375.22 492.671)" fill="#DCE2EE"/>
<circle cx="386.219" cy="563.6" r="5.98145" transform="rotate(-8.81526 386.219 563.6)" fill="#DCE2EE"/>
<circle cx="397.218" cy="634.53" r="5.98145" transform="rotate(-8.81526 397.218 634.53)" fill="#DCE2EE"/>
<circle cx="402.15" cy="197.952" r="5.98145" transform="rotate(-8.81526 402.15 197.952)" fill="#DCE2EE"/>
<circle cx="413.148" cy="268.881" r="5.98145" transform="rotate(-8.81526 413.148 268.881)" fill="#DCE2EE"/>
<circle cx="424.149" cy="339.811" r="5.98145" transform="rotate(-8.81526 424.149 339.811)" fill="#DCE2EE"/>
<circle cx="435.148" cy="410.741" r="5.98145" transform="rotate(-8.81526 435.148 410.741)" fill="#DCE2EE"/>
<circle cx="446.149" cy="481.671" r="5.98145" transform="rotate(-8.81526 446.149 481.671)" fill="#DCE2EE"/>
<circle cx="457.15" cy="552.6" r="5.98145" transform="rotate(-8.81526 457.15 552.6)" fill="#DCE2EE"/>
<circle cx="468.147" cy="623.529" r="5.98145" transform="rotate(-8.81526 468.147 623.529)" fill="#DCE2EE"/>
<circle cx="473.079" cy="186.953" r="5.98145" transform="rotate(-8.81526 473.079 186.953)" fill="#DCE2EE"/>
<circle cx="484.079" cy="257.882" r="5.98145" transform="rotate(-8.81526 484.079 257.882)" fill="#DCE2EE"/>
<circle cx="495.077" cy="328.812" r="5.98145" transform="rotate(-8.81526 495.077 328.812)" fill="#DCE2EE"/>
<circle cx="506.078" cy="399.741" r="5.98145" transform="rotate(-8.81526 506.078 399.741)" fill="#DCE2EE"/>
<circle cx="517.077" cy="470.671" r="5.98145" transform="rotate(-8.81526 517.077 470.671)" fill="#DCE2EE"/>
<circle cx="528.078" cy="541.601" r="5.98145" transform="rotate(-8.81526 528.078 541.601)" fill="#DCE2EE"/>
<circle cx="539.079" cy="612.53" r="5.98145" transform="rotate(-8.81526 539.079 612.53)" fill="#DCE2EE"/>
<circle cx="544.008" cy="175.952" r="5.98145" transform="rotate(-8.81526 544.008 175.952)" fill="#DCE2EE"/>
<circle cx="555.009" cy="246.882" r="5.98145" transform="rotate(-8.81526 555.009 246.882)" fill="#DCE2EE"/>
<circle cx="566.006" cy="317.812" r="5.98145" transform="rotate(-8.81526 566.006 317.812)" fill="#DCE2EE"/>
<circle cx="577.007" cy="388.741" r="5.98145" transform="rotate(-8.81526 577.007 388.741)" fill="#DCE2EE"/>
<circle cx="588.007" cy="459.671" r="5.98145" transform="rotate(-8.81526 588.007 459.671)" fill="#DCE2EE"/>
<circle cx="599.007" cy="530.601" r="5.98145" transform="rotate(-8.81526 599.007 530.601)" fill="#DCE2EE"/>
<circle cx="610.008" cy="601.53" r="5.98145" transform="rotate(-8.81526 610.008 601.53)" fill="#DCE2EE"/>
<circle cx="614.938" cy="164.952" r="5.98145" transform="rotate(-8.81526 614.938 164.952)" fill="#DCE2EE"/>
<circle cx="625.938" cy="235.883" r="5.98145" transform="rotate(-8.81526 625.938 235.883)" fill="#DCE2EE"/>
<circle cx="636.938" cy="306.812" r="5.98145" transform="rotate(-8.81526 636.938 306.812)" fill="#DCE2EE"/>
<circle cx="647.936" cy="377.742" r="5.98145" transform="rotate(-8.81526 647.936 377.742)" fill="#DCE2EE"/>
<circle cx="658.937" cy="448.671" r="5.98145" transform="rotate(-8.81526 658.937 448.671)" fill="#DCE2EE"/>
<circle cx="669.937" cy="519.601" r="5.98145" transform="rotate(-8.81526 669.937 519.601)" fill="#DCE2EE"/>
<circle cx="680.937" cy="590.531" r="5.98145" transform="rotate(-8.81526 680.937 590.531)" fill="#DCE2EE"/>
<circle cx="685.867" cy="153.953" r="5.98145" transform="rotate(-8.81526 685.867 153.953)" fill="#DCE2EE"/>
<circle cx="696.867" cy="224.882" r="5.98145" transform="rotate(-8.81526 696.867 224.882)" fill="#DCE2EE"/>
<circle cx="707.867" cy="295.812" r="5.98145" transform="rotate(-8.81526 707.867 295.812)" fill="#DCE2EE"/>
<circle cx="718.867" cy="366.742" r="5.98145" transform="rotate(-8.81526 718.867 366.742)" fill="#DCE2EE"/>
<circle cx="729.866" cy="437.672" r="5.98145" transform="rotate(-8.81526 729.866 437.672)" fill="#DCE2EE"/>
<circle cx="740.866" cy="508.601" r="5.98145" transform="rotate(-8.81526 740.866 508.601)" fill="#DCE2EE"/>
<circle cx="751.866" cy="579.531" r="5.98145" transform="rotate(-8.81526 751.866 579.531)" fill="#DCE2EE"/>
<circle cx="708.204" cy="690.241" r="11.9629" fill="#BCE01A"/>
<circle cx="14.3555" cy="570.612" r="14.3555" fill="#16A3B9"/>
<circle cx="667.379" cy="12.9553" r="11.9629" fill="#FF7223"/>
</svg>
