<svg width="642" height="528" viewBox="0 0 642 528" fill="none" xmlns="http://www.w3.org/2000/svg">
<circle cx="56.6978" cy="157.869" r="4.91924" transform="rotate(-8.81526 56.6978 157.869)" fill="#DCE2EE"/>
<circle cx="65.7439" cy="216.203" r="4.91924" transform="rotate(-8.81526 65.7439 216.203)" fill="#DCE2EE"/>
<circle cx="74.7904" cy="274.536" r="4.91924" transform="rotate(-8.81526 74.7904 274.536)" fill="#DCE2EE"/>
<circle cx="83.8382" cy="332.87" r="4.91924" transform="rotate(-8.81526 83.8382 332.87)" fill="#DCE2EE"/>
<ellipse rx="4.91924" ry="4.91924" transform="matrix(0.988187 -0.153252 0.153246 0.988188 92.8842 391.204)" fill="#DCE2EE"/>
<circle cx="101.93" cy="449.538" r="4.91924" transform="rotate(-8.81526 101.93 449.538)" fill="#DCE2EE"/>
<circle cx="110.977" cy="507.871" r="4.91924" transform="rotate(-8.81526 110.977 507.871)" fill="#DCE2EE"/>
<circle cx="115.031" cy="148.823" r="4.91924" transform="rotate(-8.81526 115.031 148.823)" fill="#DCE2EE"/>
<circle cx="124.077" cy="207.157" r="4.91924" transform="rotate(-8.81526 124.077 207.157)" fill="#DCE2EE"/>
<circle cx="133.125" cy="265.491" r="4.91924" transform="rotate(-8.81526 133.125 265.491)" fill="#DCE2EE"/>
<circle cx="142.171" cy="323.824" r="4.91924" transform="rotate(-8.81526 142.171 323.824)" fill="#DCE2EE"/>
<ellipse rx="4.91924" ry="4.91924" transform="matrix(0.988187 -0.153252 0.153246 0.988188 151.218 382.157)" fill="#DCE2EE"/>
<ellipse rx="4.91924" ry="4.91924" transform="matrix(0.988187 -0.153252 0.153246 0.988188 160.264 440.491)" fill="#DCE2EE"/>
<circle cx="169.31" cy="498.825" r="4.91924" transform="rotate(-8.81526 169.31 498.825)" fill="#DCE2EE"/>
<circle cx="173.364" cy="139.777" r="4.91924" transform="rotate(-8.81526 173.364 139.777)" fill="#DCE2EE"/>
<circle cx="182.411" cy="198.11" r="4.91924" transform="rotate(-8.81526 182.411 198.11)" fill="#DCE2EE"/>
<circle cx="191.458" cy="256.444" r="4.91924" transform="rotate(-8.81526 191.458 256.444)" fill="#DCE2EE"/>
<circle cx="200.505" cy="314.778" r="4.91924" transform="rotate(-8.81526 200.505 314.778)" fill="#DCE2EE"/>
<ellipse rx="4.91924" ry="4.91924" transform="matrix(0.988188 -0.153248 0.15325 0.988187 209.551 373.111)" fill="#DCE2EE"/>
<ellipse rx="4.91924" ry="4.91924" transform="matrix(0.988188 -0.153246 0.153252 0.988187 218.597 431.445)" fill="#DCE2EE"/>
<ellipse rx="4.91924" ry="4.91924" transform="matrix(0.988187 -0.153253 0.153245 0.988188 227.643 489.778)" fill="#DCE2EE"/>
<circle cx="231.698" cy="130.73" r="4.91924" transform="rotate(-8.81526 231.698 130.73)" fill="#DCE2EE"/>
<circle cx="240.745" cy="189.064" r="4.91924" transform="rotate(-8.81526 240.745 189.064)" fill="#DCE2EE"/>
<circle cx="249.792" cy="247.398" r="4.91924" transform="rotate(-8.81526 249.792 247.398)" fill="#DCE2EE"/>
<circle cx="258.838" cy="305.731" r="4.91924" transform="rotate(-8.81526 258.838 305.731)" fill="#DCE2EE"/>
<circle cx="267.884" cy="364.065" r="4.91924" transform="rotate(-8.81526 267.884 364.065)" fill="#DCE2EE"/>
<circle cx="276.931" cy="422.398" r="4.91924" transform="rotate(-8.81526 276.931 422.398)" fill="#DCE2EE"/>
<ellipse rx="4.91924" ry="4.91924" transform="matrix(0.988188 -0.153246 0.153252 0.988187 285.977 480.732)" fill="#DCE2EE"/>
<circle cx="290.032" cy="121.684" r="4.91924" transform="rotate(-8.81526 290.032 121.684)" fill="#DCE2EE"/>
<circle cx="299.079" cy="180.017" r="4.91924" transform="rotate(-8.81526 299.079 180.017)" fill="#DCE2EE"/>
<circle cx="308.125" cy="238.351" r="4.91924" transform="rotate(-8.81526 308.125 238.351)" fill="#DCE2EE"/>
<circle cx="317.171" cy="296.684" r="4.91924" transform="rotate(-8.81526 317.171 296.684)" fill="#DCE2EE"/>
<circle cx="326.218" cy="355.018" r="4.91924" transform="rotate(-8.81526 326.218 355.018)" fill="#DCE2EE"/>
<circle cx="335.264" cy="413.352" r="4.91924" transform="rotate(-8.81526 335.264 413.352)" fill="#DCE2EE"/>
<circle cx="344.31" cy="471.686" r="4.91924" transform="rotate(-8.81526 344.31 471.686)" fill="#DCE2EE"/>
<circle cx="348.366" cy="112.638" r="4.91924" transform="rotate(-8.81526 348.366 112.638)" fill="#DCE2EE"/>
<circle cx="357.412" cy="170.971" r="4.91924" transform="rotate(-8.81526 357.412 170.971)" fill="#DCE2EE"/>
<circle cx="366.458" cy="229.305" r="4.91924" transform="rotate(-8.81526 366.458 229.305)" fill="#DCE2EE"/>
<circle cx="375.505" cy="287.638" r="4.91924" transform="rotate(-8.81526 375.505 287.638)" fill="#DCE2EE"/>
<circle cx="384.551" cy="345.972" r="4.91924" transform="rotate(-8.81526 384.551 345.972)" fill="#DCE2EE"/>
<circle cx="393.598" cy="404.305" r="4.91924" transform="rotate(-8.81526 393.598 404.305)" fill="#DCE2EE"/>
<ellipse rx="4.91924" ry="4.91924" transform="matrix(0.988187 -0.153252 0.153246 0.988188 402.645 462.638)" fill="#DCE2EE"/>
<circle cx="406.699" cy="103.591" r="4.91924" transform="rotate(-8.81526 406.699 103.591)" fill="#DCE2EE"/>
<circle cx="415.745" cy="161.925" r="4.91924" transform="rotate(-8.81526 415.745 161.925)" fill="#DCE2EE"/>
<circle cx="424.792" cy="220.258" r="4.91924" transform="rotate(-8.81526 424.792 220.258)" fill="#DCE2EE"/>
<circle cx="433.839" cy="278.592" r="4.91924" transform="rotate(-8.81526 433.839 278.592)" fill="#DCE2EE"/>
<ellipse rx="4.91924" ry="4.91924" transform="matrix(0.988187 -0.153252 0.153246 0.988188 442.885 336.925)" fill="#DCE2EE"/>
<circle cx="451.932" cy="395.259" r="4.91924" transform="rotate(-8.81526 451.932 395.259)" fill="#DCE2EE"/>
<ellipse rx="4.91924" ry="4.91924" transform="matrix(0.988188 -0.153246 0.153252 0.988187 460.978 453.593)" fill="#DCE2EE"/>
<circle cx="465.033" cy="94.5443" r="4.91924" transform="rotate(-8.81526 465.033 94.5443)" fill="#DCE2EE"/>
<circle cx="474.08" cy="152.878" r="4.91924" transform="rotate(-8.81526 474.08 152.878)" fill="#DCE2EE"/>
<circle cx="483.126" cy="211.212" r="4.91924" transform="rotate(-8.81526 483.126 211.212)" fill="#DCE2EE"/>
<circle cx="492.172" cy="269.546" r="4.91924" transform="rotate(-8.81526 492.172 269.546)" fill="#DCE2EE"/>
<ellipse rx="4.91924" ry="4.91924" transform="matrix(0.988187 -0.153252 0.153246 0.988188 501.219 327.879)" fill="#DCE2EE"/>
<ellipse rx="4.91924" ry="4.91924" transform="matrix(0.988187 -0.153252 0.153246 0.988188 510.265 386.212)" fill="#DCE2EE"/>
<ellipse rx="4.91924" ry="4.91924" transform="matrix(0.988188 -0.153246 0.153252 0.988187 519.312 444.546)" fill="#DCE2EE"/>
<circle cx="523.367" cy="85.4984" r="4.91924" transform="rotate(-8.81526 523.367 85.4984)" fill="#DCE2EE"/>
<circle cx="532.413" cy="143.832" r="4.91924" transform="rotate(-8.81526 532.413 143.832)" fill="#DCE2EE"/>
<circle cx="541.46" cy="202.165" r="4.91924" transform="rotate(-8.81526 541.46 202.165)" fill="#DCE2EE"/>
<circle cx="550.506" cy="260.499" r="4.91924" transform="rotate(-8.81526 550.506 260.499)" fill="#DCE2EE"/>
<ellipse rx="4.91924" ry="4.91924" transform="matrix(0.988188 -0.153246 0.153252 0.988187 559.552 318.832)" fill="#DCE2EE"/>
<ellipse rx="4.91924" ry="4.91924" transform="matrix(0.988188 -0.153246 0.153252 0.988187 568.599 377.166)" fill="#DCE2EE"/>
<circle cx="577.645" cy="435.5" r="4.91924" transform="rotate(-8.81526 577.645 435.5)" fill="#DCE2EE"/>
<circle cx="581.701" cy="76.452" r="4.91924" transform="rotate(-8.81526 581.701 76.452)" fill="#DCE2EE"/>
<circle cx="590.747" cy="134.785" r="4.91924" transform="rotate(-8.81526 590.747 134.785)" fill="#DCE2EE"/>
<circle cx="599.793" cy="193.119" r="4.91924" transform="rotate(-8.81526 599.793 193.119)" fill="#DCE2EE"/>
<circle cx="608.839" cy="251.452" r="4.91924" transform="rotate(-8.81526 608.839 251.452)" fill="#DCE2EE"/>
<circle cx="617.886" cy="309.786" r="4.91924" transform="rotate(-8.81526 617.886 309.786)" fill="#DCE2EE"/>
<circle cx="626.932" cy="368.119" r="4.91924" transform="rotate(-8.81526 626.932 368.119)" fill="#DCE2EE"/>
<circle cx="635.978" cy="426.453" r="4.91924" transform="rotate(-8.81526 635.978 426.453)" fill="#DCE2EE"/>
<circle cx="600.07" cy="517.504" r="9.83848" fill="#BCE01A"/>
<circle cx="11.8062" cy="419.119" r="11.8062" fill="#16A3B9"/>
<circle cx="500.702" cy="9.83848" r="9.83848" fill="#FF7223"/>
</svg>
