<svg width="642" height="528" viewBox="0 0 642 528" fill="none" xmlns="http://www.w3.org/2000/svg">
<circle cx="56.697" cy="157.869" r="4.91924" transform="rotate(-8.81526 56.697 157.869)" fill="#DCE2EE"/>
<circle cx="65.7439" cy="216.202" r="4.91924" transform="rotate(-8.81526 65.7439 216.202)" fill="#DCE2EE"/>
<circle cx="74.79" cy="274.536" r="4.91924" transform="rotate(-8.81526 74.79 274.536)" fill="#DCE2EE"/>
<circle cx="83.8377" cy="332.87" r="4.91924" transform="rotate(-8.81526 83.8377 332.87)" fill="#DCE2EE"/>
<ellipse rx="4.91924" ry="4.91924" transform="matrix(0.988187 -0.153252 0.153246 0.988188 92.8835 391.204)" fill="#DCE2EE"/>
<circle cx="101.929" cy="449.537" r="4.91924" transform="rotate(-8.81526 101.929 449.537)" fill="#DCE2EE"/>
<circle cx="110.976" cy="507.871" r="4.91924" transform="rotate(-8.81526 110.976 507.871)" fill="#DCE2EE"/>
<circle cx="115.03" cy="148.823" r="4.91924" transform="rotate(-8.81526 115.03 148.823)" fill="#DCE2EE"/>
<circle cx="124.077" cy="207.156" r="4.91924" transform="rotate(-8.81526 124.077 207.156)" fill="#DCE2EE"/>
<circle cx="133.125" cy="265.49" r="4.91924" transform="rotate(-8.81526 133.125 265.49)" fill="#DCE2EE"/>
<circle cx="142.171" cy="323.824" r="4.91924" transform="rotate(-8.81526 142.171 323.824)" fill="#DCE2EE"/>
<ellipse rx="4.91924" ry="4.91924" transform="matrix(0.988187 -0.153252 0.153246 0.988188 151.217 382.157)" fill="#DCE2EE"/>
<ellipse rx="4.91924" ry="4.91924" transform="matrix(0.988187 -0.153252 0.153246 0.988188 160.263 440.491)" fill="#DCE2EE"/>
<circle cx="169.309" cy="498.824" r="4.91924" transform="rotate(-8.81526 169.309 498.824)" fill="#DCE2EE"/>
<circle cx="173.364" cy="139.776" r="4.91924" transform="rotate(-8.81526 173.364 139.776)" fill="#DCE2EE"/>
<circle cx="182.41" cy="198.109" r="4.91924" transform="rotate(-8.81526 182.41 198.109)" fill="#DCE2EE"/>
<circle cx="191.458" cy="256.443" r="4.91924" transform="rotate(-8.81526 191.458 256.443)" fill="#DCE2EE"/>
<circle cx="200.504" cy="314.777" r="4.91924" transform="rotate(-8.81526 200.504 314.777)" fill="#DCE2EE"/>
<ellipse rx="4.91924" ry="4.91924" transform="matrix(0.988188 -0.153248 0.15325 0.988187 209.551 373.111)" fill="#DCE2EE"/>
<ellipse rx="4.91924" ry="4.91924" transform="matrix(0.988188 -0.153246 0.153252 0.988187 218.597 431.444)" fill="#DCE2EE"/>
<ellipse rx="4.91924" ry="4.91924" transform="matrix(0.988187 -0.153253 0.153245 0.988188 227.643 489.778)" fill="#DCE2EE"/>
<circle cx="231.697" cy="130.73" r="4.91924" transform="rotate(-8.81526 231.697 130.73)" fill="#DCE2EE"/>
<circle cx="240.745" cy="189.063" r="4.91924" transform="rotate(-8.81526 240.745 189.063)" fill="#DCE2EE"/>
<circle cx="249.792" cy="247.397" r="4.91924" transform="rotate(-8.81526 249.792 247.397)" fill="#DCE2EE"/>
<circle cx="258.837" cy="305.73" r="4.91924" transform="rotate(-8.81526 258.837 305.73)" fill="#DCE2EE"/>
<circle cx="267.884" cy="364.064" r="4.91924" transform="rotate(-8.81526 267.884 364.064)" fill="#DCE2EE"/>
<circle cx="276.93" cy="422.397" r="4.91924" transform="rotate(-8.81526 276.93 422.397)" fill="#DCE2EE"/>
<ellipse rx="4.91924" ry="4.91924" transform="matrix(0.988188 -0.153246 0.153252 0.988187 285.976 480.731)" fill="#DCE2EE"/>
<circle cx="290.032" cy="121.683" r="4.91924" transform="rotate(-8.81526 290.032 121.683)" fill="#DCE2EE"/>
<circle cx="299.079" cy="180.017" r="4.91924" transform="rotate(-8.81526 299.079 180.017)" fill="#DCE2EE"/>
<circle cx="308.125" cy="238.35" r="4.91924" transform="rotate(-8.81526 308.125 238.35)" fill="#DCE2EE"/>
<circle cx="317.171" cy="296.684" r="4.91924" transform="rotate(-8.81526 317.171 296.684)" fill="#DCE2EE"/>
<circle cx="326.218" cy="355.018" r="4.91924" transform="rotate(-8.81526 326.218 355.018)" fill="#DCE2EE"/>
<circle cx="335.263" cy="413.351" r="4.91924" transform="rotate(-8.81526 335.263 413.351)" fill="#DCE2EE"/>
<circle cx="344.309" cy="471.685" r="4.91924" transform="rotate(-8.81526 344.309 471.685)" fill="#DCE2EE"/>
<circle cx="348.366" cy="112.637" r="4.91924" transform="rotate(-8.81526 348.366 112.637)" fill="#DCE2EE"/>
<circle cx="357.412" cy="170.971" r="4.91924" transform="rotate(-8.81526 357.412 170.971)" fill="#DCE2EE"/>
<circle cx="366.458" cy="229.305" r="4.91924" transform="rotate(-8.81526 366.458 229.305)" fill="#DCE2EE"/>
<circle cx="375.505" cy="287.638" r="4.91924" transform="rotate(-8.81526 375.505 287.638)" fill="#DCE2EE"/>
<circle cx="384.551" cy="345.972" r="4.91924" transform="rotate(-8.81526 384.551 345.972)" fill="#DCE2EE"/>
<circle cx="393.598" cy="404.305" r="4.91924" transform="rotate(-8.81526 393.598 404.305)" fill="#DCE2EE"/>
<ellipse rx="4.91924" ry="4.91924" transform="matrix(0.988187 -0.153252 0.153246 0.988188 402.644 462.638)" fill="#DCE2EE"/>
<circle cx="406.699" cy="103.591" r="4.91924" transform="rotate(-8.81526 406.699 103.591)" fill="#DCE2EE"/>
<circle cx="415.745" cy="161.925" r="4.91924" transform="rotate(-8.81526 415.745 161.925)" fill="#DCE2EE"/>
<circle cx="424.791" cy="220.258" r="4.91924" transform="rotate(-8.81526 424.791 220.258)" fill="#DCE2EE"/>
<circle cx="433.839" cy="278.592" r="4.91924" transform="rotate(-8.81526 433.839 278.592)" fill="#DCE2EE"/>
<ellipse rx="4.91924" ry="4.91924" transform="matrix(0.988187 -0.153252 0.153246 0.988188 442.885 336.925)" fill="#DCE2EE"/>
<circle cx="451.932" cy="395.259" r="4.91924" transform="rotate(-8.81526 451.932 395.259)" fill="#DCE2EE"/>
<ellipse rx="4.91924" ry="4.91924" transform="matrix(0.988188 -0.153246 0.153252 0.988187 460.977 453.593)" fill="#DCE2EE"/>
<circle cx="465.032" cy="94.5438" r="4.91924" transform="rotate(-8.81526 465.032 94.5438)" fill="#DCE2EE"/>
<circle cx="474.08" cy="152.878" r="4.91924" transform="rotate(-8.81526 474.08 152.878)" fill="#DCE2EE"/>
<circle cx="483.126" cy="211.212" r="4.91924" transform="rotate(-8.81526 483.126 211.212)" fill="#DCE2EE"/>
<circle cx="492.172" cy="269.545" r="4.91924" transform="rotate(-8.81526 492.172 269.545)" fill="#DCE2EE"/>
<ellipse rx="4.91924" ry="4.91924" transform="matrix(0.988187 -0.153252 0.153246 0.988188 501.218 327.879)" fill="#DCE2EE"/>
<ellipse rx="4.91924" ry="4.91924" transform="matrix(0.988187 -0.153252 0.153246 0.988188 510.264 386.212)" fill="#DCE2EE"/>
<ellipse rx="4.91924" ry="4.91924" transform="matrix(0.988188 -0.153246 0.153252 0.988187 519.311 444.546)" fill="#DCE2EE"/>
<circle cx="523.367" cy="85.4979" r="4.91924" transform="rotate(-8.81526 523.367 85.4979)" fill="#DCE2EE"/>
<circle cx="532.413" cy="143.832" r="4.91924" transform="rotate(-8.81526 532.413 143.832)" fill="#DCE2EE"/>
<circle cx="541.459" cy="202.165" r="4.91924" transform="rotate(-8.81526 541.459 202.165)" fill="#DCE2EE"/>
<circle cx="550.506" cy="260.499" r="4.91924" transform="rotate(-8.81526 550.506 260.499)" fill="#DCE2EE"/>
<ellipse rx="4.91924" ry="4.91924" transform="matrix(0.988188 -0.153246 0.153252 0.988187 559.552 318.832)" fill="#DCE2EE"/>
<ellipse rx="4.91924" ry="4.91924" transform="matrix(0.988188 -0.153246 0.153252 0.988187 568.598 377.166)" fill="#DCE2EE"/>
<circle cx="577.644" cy="435.499" r="4.91924" transform="rotate(-8.81526 577.644 435.499)" fill="#DCE2EE"/>
<circle cx="581.7" cy="76.451" r="4.91924" transform="rotate(-8.81526 581.7 76.451)" fill="#DCE2EE"/>
<circle cx="590.746" cy="134.785" r="4.91924" transform="rotate(-8.81526 590.746 134.785)" fill="#DCE2EE"/>
<circle cx="599.793" cy="193.118" r="4.91924" transform="rotate(-8.81526 599.793 193.118)" fill="#DCE2EE"/>
<circle cx="608.839" cy="251.452" r="4.91924" transform="rotate(-8.81526 608.839 251.452)" fill="#DCE2EE"/>
<circle cx="617.885" cy="309.786" r="4.91924" transform="rotate(-8.81526 617.885 309.786)" fill="#DCE2EE"/>
<circle cx="626.931" cy="368.119" r="4.91924" transform="rotate(-8.81526 626.931 368.119)" fill="#DCE2EE"/>
<circle cx="635.978" cy="426.453" r="4.91924" transform="rotate(-8.81526 635.978 426.453)" fill="#DCE2EE"/>
<circle cx="600.07" cy="517.504" r="9.83848" fill="#BCE01A"/>
<circle cx="11.8062" cy="499.119" r="11.8062" fill="#16A3B9"/>
<circle cx="500.703" cy="9.83848" r="9.83848" fill="#FF7223"/>
</svg>
