<svg width="536" height="450" viewBox="0 0 536 450" fill="none" xmlns="http://www.w3.org/2000/svg">
<circle cx="4.46374" cy="106.536" r="3.90956" transform="rotate(-8.81526 4.46374 106.536)" fill="#DCE2EE"/>
<circle cx="11.6522" cy="152.896" r="3.90956" transform="rotate(-8.81526 11.6522 152.896)" fill="#DCE2EE"/>
<circle cx="18.8417" cy="199.258" r="3.90956" transform="rotate(-8.81526 18.8417 199.258)" fill="#DCE2EE"/>
<circle cx="26.0331" cy="245.619" r="3.90956" transform="rotate(-8.81526 26.0331 245.619)" fill="#DCE2EE"/>
<circle cx="33.2225" cy="291.979" r="3.90956" transform="rotate(-8.81526 33.2225 291.979)" fill="#DCE2EE"/>
<circle cx="40.412" cy="338.338" r="3.90956" transform="rotate(-8.81526 40.412 338.338)" fill="#DCE2EE"/>
<circle cx="47.6005" cy="384.7" r="3.90956" transform="rotate(-8.81526 47.6005 384.7)" fill="#DCE2EE"/>
<circle cx="50.8241" cy="99.3463" r="3.90956" transform="rotate(-8.81526 50.8241 99.3463)" fill="#DCE2EE"/>
<circle cx="58.0145" cy="145.707" r="3.90956" transform="rotate(-8.81526 58.0145 145.707)" fill="#DCE2EE"/>
<circle cx="65.204" cy="192.067" r="3.90956" transform="rotate(-8.81526 65.204 192.067)" fill="#DCE2EE"/>
<circle cx="72.3924" cy="238.428" r="3.90956" transform="rotate(-8.81526 72.3924 238.428)" fill="#DCE2EE"/>
<circle cx="79.5829" cy="284.79" r="3.90956" transform="rotate(-8.81526 79.5829 284.79)" fill="#DCE2EE"/>
<circle cx="86.7723" cy="331.15" r="3.90956" transform="rotate(-8.81526 86.7723 331.15)" fill="#DCE2EE"/>
<circle cx="93.9618" cy="377.51" r="3.90956" transform="rotate(-8.81526 93.9618 377.51)" fill="#DCE2EE"/>
<circle cx="97.1854" cy="92.1578" r="3.90956" transform="rotate(-8.81526 97.1854 92.1578)" fill="#DCE2EE"/>
<circle cx="104.375" cy="138.518" r="3.90956" transform="rotate(-8.81526 104.375 138.518)" fill="#DCE2EE"/>
<circle cx="111.564" cy="184.878" r="3.90956" transform="rotate(-8.81526 111.564 184.878)" fill="#DCE2EE"/>
<circle cx="118.754" cy="231.239" r="3.90956" transform="rotate(-8.81526 118.754 231.239)" fill="#DCE2EE"/>
<circle cx="125.943" cy="277.599" r="3.90956" transform="rotate(-8.81526 125.943 277.599)" fill="#DCE2EE"/>
<circle cx="133.132" cy="323.96" r="3.90956" transform="rotate(-8.81526 133.132 323.96)" fill="#DCE2EE"/>
<circle cx="140.323" cy="370.321" r="3.90956" transform="rotate(-8.81526 140.323 370.321)" fill="#DCE2EE"/>
<circle cx="143.546" cy="84.9674" r="3.90956" transform="rotate(-8.81526 143.546 84.9674)" fill="#DCE2EE"/>
<circle cx="150.734" cy="131.328" r="3.90956" transform="rotate(-8.81526 150.734 131.328)" fill="#DCE2EE"/>
<circle cx="157.925" cy="177.689" r="3.90956" transform="rotate(-8.81526 157.925 177.689)" fill="#DCE2EE"/>
<circle cx="165.114" cy="224.048" r="3.90956" transform="rotate(-8.81526 165.114 224.048)" fill="#DCE2EE"/>
<circle cx="172.304" cy="270.41" r="3.90956" transform="rotate(-8.81526 172.304 270.41)" fill="#DCE2EE"/>
<circle cx="179.493" cy="316.77" r="3.90956" transform="rotate(-8.81526 179.493 316.77)" fill="#DCE2EE"/>
<circle cx="186.682" cy="363.13" r="3.90956" transform="rotate(-8.81526 186.682 363.13)" fill="#DCE2EE"/>
<circle cx="189.906" cy="77.7779" r="3.90956" transform="rotate(-8.81526 189.906 77.7779)" fill="#DCE2EE"/>
<circle cx="197.096" cy="124.138" r="3.90956" transform="rotate(-8.81526 197.096 124.138)" fill="#DCE2EE"/>
<circle cx="204.284" cy="170.499" r="3.90956" transform="rotate(-8.81526 204.284 170.499)" fill="#DCE2EE"/>
<circle cx="211.473" cy="216.86" r="3.90956" transform="rotate(-8.81526 211.473 216.86)" fill="#DCE2EE"/>
<circle cx="218.663" cy="263.219" r="3.90956" transform="rotate(-8.81526 218.663 263.219)" fill="#DCE2EE"/>
<circle cx="225.853" cy="309.581" r="3.90956" transform="rotate(-8.81526 225.853 309.581)" fill="#DCE2EE"/>
<circle cx="233.044" cy="355.941" r="3.90956" transform="rotate(-8.81526 233.044 355.941)" fill="#DCE2EE"/>
<circle cx="236.265" cy="70.5894" r="3.90956" transform="rotate(-8.81526 236.265 70.5894)" fill="#DCE2EE"/>
<circle cx="243.455" cy="116.949" r="3.90956" transform="rotate(-8.81526 243.455 116.949)" fill="#DCE2EE"/>
<circle cx="250.645" cy="163.309" r="3.90956" transform="rotate(-8.81526 250.645 163.309)" fill="#DCE2EE"/>
<circle cx="257.835" cy="209.67" r="3.90956" transform="rotate(-8.81526 257.835 209.67)" fill="#DCE2EE"/>
<circle cx="265.024" cy="256.03" r="3.90956" transform="rotate(-8.81526 265.024 256.03)" fill="#DCE2EE"/>
<circle cx="272.215" cy="302.391" r="3.90956" transform="rotate(-8.81526 272.215 302.391)" fill="#DCE2EE"/>
<circle cx="279.405" cy="348.752" r="3.90956" transform="rotate(-8.81526 279.405 348.752)" fill="#DCE2EE"/>
<circle cx="282.627" cy="63.398" r="3.90956" transform="rotate(-8.81526 282.627 63.398)" fill="#DCE2EE"/>
<circle cx="289.816" cy="109.759" r="3.90956" transform="rotate(-8.81526 289.816 109.759)" fill="#DCE2EE"/>
<circle cx="297.006" cy="156.12" r="3.90956" transform="rotate(-8.81526 297.006 156.12)" fill="#DCE2EE"/>
<circle cx="304.197" cy="202.48" r="3.90956" transform="rotate(-8.81526 304.197 202.48)" fill="#DCE2EE"/>
<circle cx="311.386" cy="248.84" r="3.90956" transform="rotate(-8.81526 311.386 248.84)" fill="#DCE2EE"/>
<circle cx="318.575" cy="295.2" r="3.90956" transform="rotate(-8.81526 318.575 295.2)" fill="#DCE2EE"/>
<circle cx="325.765" cy="341.562" r="3.90956" transform="rotate(-8.81526 325.765 341.562)" fill="#DCE2EE"/>
<circle cx="328.986" cy="56.2086" r="3.90956" transform="rotate(-8.81526 328.986 56.2086)" fill="#DCE2EE"/>
<circle cx="336.176" cy="102.569" r="3.90956" transform="rotate(-8.81526 336.176 102.569)" fill="#DCE2EE"/>
<circle cx="343.366" cy="148.93" r="3.90956" transform="rotate(-8.81526 343.366 148.93)" fill="#DCE2EE"/>
<circle cx="350.556" cy="195.292" r="3.90956" transform="rotate(-8.81526 350.556 195.292)" fill="#DCE2EE"/>
<circle cx="357.745" cy="241.651" r="3.90956" transform="rotate(-8.81526 357.745 241.651)" fill="#DCE2EE"/>
<circle cx="364.936" cy="288.011" r="3.90956" transform="rotate(-8.81526 364.936 288.011)" fill="#DCE2EE"/>
<circle cx="372.125" cy="334.372" r="3.90956" transform="rotate(-8.81526 372.125 334.372)" fill="#DCE2EE"/>
<circle cx="375.348" cy="49.0191" r="3.90956" transform="rotate(-8.81526 375.348 49.0191)" fill="#DCE2EE"/>
<circle cx="382.537" cy="95.3785" r="3.90956" transform="rotate(-8.81526 382.537 95.3785)" fill="#DCE2EE"/>
<circle cx="389.725" cy="141.741" r="3.90956" transform="rotate(-8.81526 389.725 141.741)" fill="#DCE2EE"/>
<circle cx="396.918" cy="188.101" r="3.90956" transform="rotate(-8.81526 396.918 188.101)" fill="#DCE2EE"/>
<circle cx="404.107" cy="234.462" r="3.90956" transform="rotate(-8.81526 404.107 234.462)" fill="#DCE2EE"/>
<circle cx="411.296" cy="280.822" r="3.90956" transform="rotate(-8.81526 411.296 280.822)" fill="#DCE2EE"/>
<circle cx="418.484" cy="327.182" r="3.90956" transform="rotate(-8.81526 418.484 327.182)" fill="#DCE2EE"/>
<circle cx="421.709" cy="41.8297" r="3.90956" transform="rotate(-8.81526 421.709 41.8297)" fill="#DCE2EE"/>
<circle cx="428.897" cy="88.19" r="3.90956" transform="rotate(-8.81526 428.897 88.19)" fill="#DCE2EE"/>
<circle cx="436.087" cy="134.551" r="3.90956" transform="rotate(-8.81526 436.087 134.551)" fill="#DCE2EE"/>
<circle cx="443.277" cy="180.912" r="3.90956" transform="rotate(-8.81526 443.277 180.912)" fill="#DCE2EE"/>
<circle cx="450.465" cy="227.272" r="3.90956" transform="rotate(-8.81526 450.465 227.272)" fill="#DCE2EE"/>
<circle cx="457.656" cy="273.631" r="3.90956" transform="rotate(-8.81526 457.656 273.631)" fill="#DCE2EE"/>
<circle cx="464.848" cy="319.993" r="3.90956" transform="rotate(-8.81526 464.848 319.993)" fill="#DCE2EE"/>
<circle cx="96.3783" cy="434.096" r="15.5697" fill="#BCE01A"/>
<ellipse cx="67.5002" cy="19" rx="19.5" ry="19" fill="#16A3B9"/>
<circle cx="527.486" cy="422.083" r="8.51334" fill="#FF7223"/>
</svg>
