<svg width="100" height="100" viewBox="0 0 100 100" fill="none" xmlns="http://www.w3.org/2000/svg">
<rect width="100" height="100" rx="14" fill="#0F0F0F"/>
<path d="M70.0988 63.7445C69.3268 65.5263 68.4129 67.1664 67.3542 68.6743C65.911 70.73 64.7293 72.1529 63.8186 72.9431C62.4069 74.2401 60.8944 74.9043 59.2747 74.9421C58.112 74.9421 56.7097 74.6116 55.0775 73.941C53.4398 73.2736 51.9349 72.9431 50.5588 72.9431C49.1156 72.9431 47.5677 73.2736 45.9122 73.941C44.254 74.6116 42.9183 74.961 41.897 74.9956C40.3438 75.0617 38.7957 74.3786 37.2504 72.9431C36.2641 72.0837 35.0304 70.6104 33.5526 68.5232C31.9669 66.2944 30.6633 63.7099 29.642 60.7633C28.5483 57.5806 28 54.4986 28 51.5149C28 48.0971 28.7392 45.1493 30.22 42.679C31.3837 40.6948 32.9318 39.1295 34.8694 37.9805C36.807 36.8315 38.9006 36.2459 41.1552 36.2085C42.3889 36.2085 44.0067 36.5897 46.0171 37.3389C48.0218 38.0907 49.309 38.4719 49.8734 38.4719C50.2953 38.4719 51.7253 38.0262 54.1495 37.1375C56.4419 36.3133 58.3767 35.972 59.9617 36.1065C64.2566 36.4528 67.4834 38.1442 69.6293 41.1915C65.7881 43.5167 63.888 46.7733 63.9258 50.9511C63.9604 54.2053 65.1421 56.9132 67.4645 59.0633C68.5169 60.0613 69.6923 60.8325 71 61.3803C70.7164 62.2019 70.417 62.9889 70.0988 63.7445ZM60.2484 25.0203C60.2484 27.5709 59.3157 29.9523 57.4565 32.1566C55.213 34.777 52.4992 36.2913 49.5564 36.0523C49.5189 35.7463 49.4972 35.4243 49.4972 35.0859C49.4972 32.6373 50.5641 30.0169 52.4589 27.8743C53.4049 26.7895 54.6079 25.8875 56.0669 25.1679C57.5227 24.4591 58.8998 24.0671 60.1949 24C60.2327 24.341 60.2484 24.682 60.2484 25.0203V25.0203Z" fill="white"/>
</svg>
