<svg width="769" height="650" viewBox="0 0 769 650" fill="none" xmlns="http://www.w3.org/2000/svg">
<circle cx="48.107" cy="194.641" r="6.05779" transform="rotate(-8.81526 48.107 194.641)" fill="#DCE2EE"/>
<circle cx="59.2478" cy="266.475" r="6.05779" transform="rotate(-8.81526 59.2478 266.475)" fill="#DCE2EE"/>
<circle cx="70.3872" cy="338.311" r="6.05779" transform="rotate(-8.81526 70.3872 338.311)" fill="#DCE2EE"/>
<circle cx="81.5279" cy="410.145" r="6.05779" transform="rotate(-8.81526 81.5279 410.145)" fill="#DCE2EE"/>
<circle cx="92.6673" cy="481.98" r="6.05779" transform="rotate(-8.81526 92.6673 481.98)" fill="#DCE2EE"/>
<circle cx="103.808" cy="553.814" r="6.05779" transform="rotate(-8.81526 103.808 553.814)" fill="#DCE2EE"/>
<circle cx="114.949" cy="625.65" r="6.05779" transform="rotate(-8.81526 114.949 625.65)" fill="#DCE2EE"/>
<circle cx="119.941" cy="183.501" r="6.05779" transform="rotate(-8.81526 119.941 183.501)" fill="#DCE2EE"/>
<circle cx="131.082" cy="255.335" r="6.05779" transform="rotate(-8.81526 131.082 255.335)" fill="#DCE2EE"/>
<circle cx="142.222" cy="327.17" r="6.05779" transform="rotate(-8.81526 142.222 327.17)" fill="#DCE2EE"/>
<circle cx="153.362" cy="399.005" r="6.05779" transform="rotate(-8.81526 153.362 399.005)" fill="#DCE2EE"/>
<circle cx="164.503" cy="470.84" r="6.05779" transform="rotate(-8.81526 164.503 470.84)" fill="#DCE2EE"/>
<circle cx="175.642" cy="542.674" r="6.05779" transform="rotate(-8.81526 175.642 542.674)" fill="#DCE2EE"/>
<circle cx="186.783" cy="614.51" r="6.05779" transform="rotate(-8.81526 186.783 614.51)" fill="#DCE2EE"/>
<circle cx="191.776" cy="172.361" r="6.05779" transform="rotate(-8.81526 191.776 172.361)" fill="#DCE2EE"/>
<circle cx="202.917" cy="244.195" r="6.05779" transform="rotate(-8.81526 202.917 244.195)" fill="#DCE2EE"/>
<circle cx="214.057" cy="316.03" r="6.05779" transform="rotate(-8.81526 214.057 316.03)" fill="#DCE2EE"/>
<circle cx="225.197" cy="387.865" r="6.05779" transform="rotate(-8.81526 225.197 387.865)" fill="#DCE2EE"/>
<circle cx="236.337" cy="459.699" r="6.05779" transform="rotate(-8.81526 236.337 459.699)" fill="#DCE2EE"/>
<circle cx="247.478" cy="531.534" r="6.05779" transform="rotate(-8.81526 247.478 531.534)" fill="#DCE2EE"/>
<circle cx="258.617" cy="603.369" r="6.05779" transform="rotate(-8.81526 258.617 603.369)" fill="#DCE2EE"/>
<circle cx="263.612" cy="161.22" r="6.05779" transform="rotate(-8.81526 263.612 161.22)" fill="#DCE2EE"/>
<circle cx="274.751" cy="233.055" r="6.05779" transform="rotate(-8.81526 274.751 233.055)" fill="#DCE2EE"/>
<circle cx="285.892" cy="304.89" r="6.05779" transform="rotate(-8.81526 285.892 304.89)" fill="#DCE2EE"/>
<circle cx="297.033" cy="376.725" r="6.05779" transform="rotate(-8.81526 297.033 376.725)" fill="#DCE2EE"/>
<circle cx="308.172" cy="448.559" r="6.05779" transform="rotate(-8.81526 308.172 448.559)" fill="#DCE2EE"/>
<circle cx="319.313" cy="520.394" r="6.05779" transform="rotate(-8.81526 319.313 520.394)" fill="#DCE2EE"/>
<circle cx="330.452" cy="592.229" r="6.05779" transform="rotate(-8.81526 330.452 592.229)" fill="#DCE2EE"/>
<circle cx="335.446" cy="150.08" r="6.05779" transform="rotate(-8.81526 335.446 150.08)" fill="#DCE2EE"/>
<circle cx="346.587" cy="221.915" r="6.05779" transform="rotate(-8.81526 346.587 221.915)" fill="#DCE2EE"/>
<circle cx="357.726" cy="293.75" r="6.05779" transform="rotate(-8.81526 357.726 293.75)" fill="#DCE2EE"/>
<circle cx="368.867" cy="365.585" r="6.05779" transform="rotate(-8.81526 368.867 365.585)" fill="#DCE2EE"/>
<circle cx="380.006" cy="437.419" r="6.05779" transform="rotate(-8.81526 380.006 437.419)" fill="#DCE2EE"/>
<circle cx="391.147" cy="509.254" r="6.05779" transform="rotate(-8.81526 391.147 509.254)" fill="#DCE2EE"/>
<circle cx="402.288" cy="581.089" r="6.05779" transform="rotate(-8.81526 402.288 581.089)" fill="#DCE2EE"/>
<circle cx="407.281" cy="138.94" r="6.05779" transform="rotate(-8.81526 407.281 138.94)" fill="#DCE2EE"/>
<circle cx="418.421" cy="210.774" r="6.05779" transform="rotate(-8.81526 418.421 210.774)" fill="#DCE2EE"/>
<circle cx="429.561" cy="282.61" r="6.05779" transform="rotate(-8.81526 429.561 282.61)" fill="#DCE2EE"/>
<circle cx="440.701" cy="354.444" r="6.05779" transform="rotate(-8.81526 440.701 354.444)" fill="#DCE2EE"/>
<circle cx="451.842" cy="426.279" r="6.05779" transform="rotate(-8.81526 451.842 426.279)" fill="#DCE2EE"/>
<circle cx="462.981" cy="498.114" r="6.05779" transform="rotate(-8.81526 462.981 498.114)" fill="#DCE2EE"/>
<circle cx="474.122" cy="569.949" r="6.05779" transform="rotate(-8.81526 474.122 569.949)" fill="#DCE2EE"/>
<circle cx="479.115" cy="127.8" r="6.05779" transform="rotate(-8.81526 479.115 127.8)" fill="#DCE2EE"/>
<circle cx="490.256" cy="199.635" r="6.05779" transform="rotate(-8.81526 490.256 199.635)" fill="#DCE2EE"/>
<circle cx="501.397" cy="271.47" r="6.05779" transform="rotate(-8.81526 501.397 271.47)" fill="#DCE2EE"/>
<circle cx="512.536" cy="343.304" r="6.05779" transform="rotate(-8.81526 512.536 343.304)" fill="#DCE2EE"/>
<circle cx="523.677" cy="415.139" r="6.05779" transform="rotate(-8.81526 523.677 415.139)" fill="#DCE2EE"/>
<circle cx="534.817" cy="486.974" r="6.05779" transform="rotate(-8.81526 534.817 486.974)" fill="#DCE2EE"/>
<circle cx="545.957" cy="558.808" r="6.05779" transform="rotate(-8.81526 545.957 558.808)" fill="#DCE2EE"/>
<circle cx="550.951" cy="116.659" r="6.05779" transform="rotate(-8.81526 550.951 116.659)" fill="#DCE2EE"/>
<circle cx="562.09" cy="188.494" r="6.05779" transform="rotate(-8.81526 562.09 188.494)" fill="#DCE2EE"/>
<circle cx="573.231" cy="260.329" r="6.05779" transform="rotate(-8.81526 573.231 260.329)" fill="#DCE2EE"/>
<circle cx="584.371" cy="332.164" r="6.05779" transform="rotate(-8.81526 584.371 332.164)" fill="#DCE2EE"/>
<circle cx="595.511" cy="403.998" r="6.05779" transform="rotate(-8.81526 595.511 403.998)" fill="#DCE2EE"/>
<circle cx="606.652" cy="475.834" r="6.05779" transform="rotate(-8.81526 606.652 475.834)" fill="#DCE2EE"/>
<circle cx="617.792" cy="547.668" r="6.05779" transform="rotate(-8.81526 617.792 547.668)" fill="#DCE2EE"/>
<circle cx="622.785" cy="105.519" r="6.05779" transform="rotate(-8.81526 622.785 105.519)" fill="#DCE2EE"/>
<circle cx="633.925" cy="177.354" r="6.05779" transform="rotate(-8.81526 633.925 177.354)" fill="#DCE2EE"/>
<circle cx="645.065" cy="249.189" r="6.05779" transform="rotate(-8.81526 645.065 249.189)" fill="#DCE2EE"/>
<circle cx="656.206" cy="321.024" r="6.05779" transform="rotate(-8.81526 656.206 321.024)" fill="#DCE2EE"/>
<circle cx="667.346" cy="392.858" r="6.05779" transform="rotate(-8.81526 667.346 392.858)" fill="#DCE2EE"/>
<circle cx="678.486" cy="464.693" r="6.05779" transform="rotate(-8.81526 678.486 464.693)" fill="#DCE2EE"/>
<circle cx="689.626" cy="536.528" r="6.05779" transform="rotate(-8.81526 689.626 536.528)" fill="#DCE2EE"/>
<circle cx="694.62" cy="94.3792" r="6.05779" transform="rotate(-8.81526 694.62 94.3792)" fill="#DCE2EE"/>
<circle cx="705.76" cy="166.214" r="6.05779" transform="rotate(-8.81526 705.76 166.214)" fill="#DCE2EE"/>
<circle cx="716.9" cy="238.049" r="6.05779" transform="rotate(-8.81526 716.9 238.049)" fill="#DCE2EE"/>
<circle cx="728.041" cy="309.883" r="6.05779" transform="rotate(-8.81526 728.041 309.883)" fill="#DCE2EE"/>
<circle cx="739.18" cy="381.718" r="6.05779" transform="rotate(-8.81526 739.18 381.718)" fill="#DCE2EE"/>
<circle cx="750.321" cy="453.553" r="6.05779" transform="rotate(-8.81526 750.321 453.553)" fill="#DCE2EE"/>
<circle cx="761.461" cy="525.388" r="6.05779" transform="rotate(-8.81526 761.461 525.388)" fill="#DCE2EE"/>
<circle cx="717.242" cy="637.512" r="12.1156" fill="#BCE01A"/>
<circle cx="14.5387" cy="516.356" r="14.5387" fill="#16A3B9"/>
<circle cx="594.875" cy="12.3478" r="12.1156" fill="#FF7223"/>
</svg>
