<svg width="20" height="26" viewBox="0 0 20 26" fill="none" xmlns="http://www.w3.org/2000/svg">
<path d="M7.67072 3.73441C7.67072 1.81973 6.11857 0.267578 4.20389 0.267578C2.28921 0.267578 0.737061 1.81973 0.737061 3.73441V22.2242C0.737061 24.1388 2.28921 25.691 4.20389 25.691C6.11857 25.691 7.67072 24.1388 7.67072 22.2242V3.73441Z" fill="white"/>
<path d="M6.51404 3.73432C6.51404 2.45786 5.47927 1.4231 4.20282 1.4231C2.92637 1.4231 1.8916 2.45786 1.8916 3.73432V22.2241C1.8916 23.5005 2.92637 24.5353 4.20282 24.5353C5.47927 24.5353 6.51404 23.5005 6.51404 22.2241V3.73432Z" stroke="white" stroke-width="2.31122"/>
<path d="M19.2264 3.73441C19.2264 1.81973 17.6742 0.267578 15.7596 0.267578C13.8449 0.267578 12.2927 1.81973 12.2927 3.73441V22.2242C12.2927 24.1388 13.8449 25.691 15.7596 25.691C17.6742 25.691 19.2264 24.1388 19.2264 22.2242V3.73441Z" fill="white"/>
<path d="M18.0697 3.73432C18.0697 2.45786 17.0349 1.4231 15.7585 1.4231C14.482 1.4231 13.4473 2.45786 13.4473 3.73432V22.2241C13.4473 23.5005 14.482 24.5353 15.7585 24.5353C17.0349 24.5353 18.0697 23.5005 18.0697 22.2241V3.73432Z" stroke="white" stroke-width="2.31122"/>
</svg>
