<svg width="60" height="60" viewBox="0 0 60 60" fill="none" xmlns="http://www.w3.org/2000/svg">
<path d="M43.02 0C53.19 0 60 7.14 60 17.76V42.273C60 52.86 53.19 60 43.02 60H17.01C6.84 60 0 52.86 0 42.273V17.76C0 7.14 6.84 0 17.01 0H43.02ZM42.54 21C41.52 19.98 39.84 19.98 38.82 21L26.43 33.39L21.18 28.14C20.16 27.12 18.48 27.12 17.46 28.14C16.44 29.16 16.44 30.81 17.46 31.86L24.6 38.97C25.11 39.48 25.77 39.72 26.43 39.72C27.12 39.72 27.78 39.48 28.29 38.97L42.54 24.72C43.56 23.7 43.56 22.05 42.54 21Z" fill="#BCE01A"/>
</svg>
