<svg width="83" height="83" viewBox="0 0 83 83" fill="none" xmlns="http://www.w3.org/2000/svg">
<g clip-path="url(#clip0_50_3982)">
<path d="M24.1996 24.1998C33.7461 14.6533 49.2242 14.6532 58.7708 24.1998C68.3172 33.7463 68.3172 49.2244 58.7708 58.7709C49.2242 68.3175 33.7461 68.3174 24.1996 58.7709C14.6531 49.2244 14.6531 33.7463 24.1996 24.1998ZM32.8424 32.8426C32.1861 33.4989 32.1314 34.529 32.6782 35.2477L32.8424 35.4354L38.8924 41.4854L32.8424 47.5353C32.1264 48.2513 32.1264 49.4122 32.8424 50.1281C33.4987 50.7845 34.5289 50.8392 35.2476 50.2923L35.4352 50.1281L41.4852 44.0782L47.5351 50.1281C48.2511 50.8441 49.412 50.8441 50.128 50.1281C50.7843 49.4718 50.8389 48.4416 50.2922 47.723L50.128 47.5353L44.078 41.4854L50.128 35.4354C50.8439 34.7194 50.8439 33.5585 50.128 32.8426C49.4716 32.1862 48.4414 32.1316 47.7229 32.6784L47.5351 32.8426L41.4852 38.8925L35.4352 32.8426C34.7193 32.1266 33.5584 32.1266 32.8424 32.8426Z" fill="#E24040"/>
</g>
<defs>
<clipPath id="clip0_50_3982">
<rect width="58.6691" height="58.6691" fill="white" transform="translate(0 41.4854) rotate(-45)"/>
</clipPath>
</defs>
</svg>
