<svg width="46" height="31" viewBox="0 0 46 31" fill="none" xmlns="http://www.w3.org/2000/svg">
<path d="M45.6466 15.0056L45.666 15.2941C45.666 16.3699 44.8666 17.259 43.8294 17.3995L43.541 17.4191L7.56901 17.4165L16.6957 26.5381C17.4503 27.2924 17.5194 28.473 16.9026 29.3052L16.6969 29.5434C15.9429 30.2982 14.7623 30.3674 13.9301 29.7503L13.6916 29.5449L0.941558 16.8053C0.187042 16.0514 0.117912 14.8707 0.734725 14.0386L0.940429 13.8003L13.6904 1.03952C14.52 0.209322 15.8653 0.208756 16.6957 1.03827C17.4503 1.79236 17.5194 2.9729 16.9026 3.80505L16.6969 4.04347L7.58035 13.1665L43.541 13.169C44.6168 13.169 45.5059 13.9683 45.6466 15.0056L45.666 15.2941L45.6466 15.0056Z" fill="#16A3B9"/>
</svg>
