<svg width="138" height="45" viewBox="0 0 138 45" fill="none" xmlns="http://www.w3.org/2000/svg">
<path fill-rule="evenodd" clip-rule="evenodd" d="M85.6077 35.1921C77.6185 41.5907 65.998 44.9998 55.9752 44.9998C41.9337 44.9998 29.3448 39.3879 19.7578 30.0522C19.0315 29.3179 19.661 28.3215 20.581 28.8984C30.8942 35.4019 43.6284 39.283 56.7983 39.283C65.659 39.283 75.4397 37.29 84.4456 33.1466C85.8013 32.5697 86.915 34.1431 85.6077 35.1921Z" fill="#CFCFDE"/>
<path fill-rule="evenodd" clip-rule="evenodd" d="M88.9487 31.0488C87.9319 29.6327 82.17 30.367 79.6038 30.7341C78.8291 30.839 78.6839 30.1048 79.4102 29.5803C84.01 26.0663 91.5149 27.1152 92.3864 28.2691C93.258 29.4229 92.1443 37.6048 87.8351 41.4859C87.1572 42.0628 86.5277 41.7481 86.8183 40.9614C87.7866 38.339 89.9655 32.5173 88.9487 31.0488Z" fill="#CFCFDE"/>
<path fill-rule="evenodd" clip-rule="evenodd" d="M79.749 4.93007V1.52098C79.749 0.9965 80.0879 0.681812 80.5237 0.681812H94.5652C95.001 0.681812 95.3883 1.04895 95.3883 1.52098V4.40559C95.3883 4.87762 95.001 5.50699 94.3231 6.55594L87.0603 17.7797C89.7717 17.7273 92.6284 18.1469 95.0494 19.6154C95.582 19.9301 95.7273 20.4545 95.7757 20.9266V24.5454C95.7757 25.0699 95.2915 25.6468 94.7589 25.3322C90.4496 22.8671 84.6877 22.6049 79.9427 25.3846C79.4585 25.6468 78.9259 25.1224 78.9259 24.5979V21.1364C78.9259 20.6119 78.9259 19.6678 79.4585 18.8287L87.8834 5.76923H80.5721C80.1364 5.76923 79.749 5.40209 79.749 4.93007ZM28.5701 26.0664H24.3093C23.9219 26.014 23.583 25.6993 23.5346 25.2797V1.57343C23.5346 1.1014 23.9219 0.734263 24.3577 0.734263H28.328C28.7638 0.734263 29.0543 1.1014 29.1027 1.52098V4.61538H29.1996C30.2164 1.62587 32.2016 0.209787 34.8162 0.209787C37.4792 0.209787 39.1739 1.62587 40.3359 4.61538C41.3527 1.62587 43.7253 0.209787 46.2431 0.209787C48.0346 0.209787 49.9713 0.9965 51.1818 2.83216C52.5375 4.82517 52.247 7.70979 52.247 10.2797V25.2797C52.247 25.7517 51.8597 26.1189 51.4239 26.1189H47.2114C46.7757 26.0664 46.4367 25.6993 46.4367 25.2797V12.6923C46.4367 11.6958 46.5336 9.17831 46.3399 8.23426C46.001 6.66083 45.081 6.1888 43.8221 6.1888C42.8053 6.1888 41.6917 6.92308 41.2559 8.12937C40.8201 9.33566 40.8686 11.3287 40.8686 12.6923V25.2797C40.8686 25.7517 40.4812 26.1189 40.0454 26.1189H35.7846C35.3488 26.0664 35.0099 25.6993 35.0099 25.2797V12.6923C35.0099 10.0699 35.3972 6.13635 32.3952 6.13635C29.3448 6.13635 29.4417 9.91258 29.4417 12.6923V25.2797C29.3933 25.6993 29.0543 26.0664 28.5701 26.0664ZM107.493 0.209787C113.836 0.209787 117.274 6.08391 117.274 13.5839C117.274 20.8217 113.497 26.5909 107.493 26.5909C101.295 26.5909 97.9061 20.7168 97.9061 13.3741C97.8577 5.97902 101.295 0.209787 107.493 0.209787ZM107.493 5.0874C104.346 5.0874 104.152 9.75525 104.152 12.6399C104.152 15.5245 104.104 21.7133 107.445 21.7133C110.737 21.7133 110.931 16.7308 110.931 13.6888C110.931 11.6958 110.834 9.28322 110.301 7.39511C109.817 5.71679 108.849 5.0874 107.493 5.0874ZM125.457 26.0664H121.196C120.76 26.014 120.421 25.6469 120.421 25.2273V1.46853C120.469 1.04894 120.808 0.681812 121.244 0.681812H125.214C125.602 0.681812 125.892 0.996507 125.989 1.36364V4.98252H126.086C127.296 1.73077 128.943 0.209787 131.896 0.209787C133.785 0.209787 135.673 0.944046 136.883 2.9895C137.997 4.87761 137.997 8.07692 137.997 10.3846V25.3322C137.949 25.7517 137.61 26.0664 137.174 26.0664H132.913C132.526 26.014 132.187 25.6993 132.138 25.3322V12.4301C132.138 9.80768 132.429 6.03147 129.475 6.03147C128.458 6.03147 127.49 6.76574 127.006 7.91958C126.425 9.38811 126.328 10.8042 126.328 12.4301V25.2273C126.28 25.6993 125.892 26.0664 125.457 26.0664ZM68.5642 14.7378C68.5642 16.521 68.6126 18.042 67.7895 19.6678C67.1116 20.979 66.0464 21.7657 64.836 21.7657C63.1897 21.7657 62.2213 20.4021 62.2213 18.4091C62.2213 14.4755 65.4654 13.7412 68.5642 13.7412V14.7378ZM72.8735 26.014C72.583 26.2762 72.1956 26.3287 71.8567 26.1189C70.4526 24.8601 70.162 24.2308 69.3873 23.0245C67.0632 25.5944 65.3686 26.3811 62.3666 26.3811C58.7836 26.3811 55.9753 23.9685 55.9753 19.1958C55.9753 15.4196 57.8636 12.9021 60.5267 11.6433C62.8508 10.5419 66.0948 10.3322 68.5642 10.0175V9.44056C68.5642 8.33916 68.6611 7.02798 68.0316 6.08392C67.499 5.24476 66.5306 4.87762 65.6591 4.87762C64.0128 4.87762 62.5603 5.76923 62.2213 7.65735C62.1245 8.07693 61.8824 8.49649 61.495 8.49649L57.3794 8.02447C57.0405 7.91957 56.6531 7.65734 56.75 7.08042C57.7184 1.62587 62.2213 0 66.2885 0C68.3705 0 71.082 0.57692 72.7283 2.30769C74.8103 4.40559 74.6166 7.23777 74.6166 10.2797V17.465C74.6166 19.6154 75.4397 20.5594 76.2144 21.7657C76.5049 22.1853 76.5533 22.7098 76.2144 22.972C75.2944 23.7587 73.745 25.2273 72.8735 26.014ZM12.6403 14.7378C12.6403 16.521 12.6887 18.042 11.8656 19.6678C11.1877 20.979 10.1225 21.7657 8.91202 21.7657C7.26577 21.7657 6.2974 20.4021 6.2974 18.4091C6.2974 14.4755 9.54147 13.7412 12.6403 13.7412V14.7378ZM16.9012 26.014C16.6106 26.2762 16.2233 26.3287 15.8844 26.1189C14.4802 24.8601 14.1897 24.2308 13.415 23.0245C11.0909 25.5944 9.39621 26.3811 6.39423 26.3811C2.81123 26.3811 0.00292969 23.9685 0.00292969 19.1958C0.00292969 15.4196 1.89127 12.9021 4.55431 11.6433C6.87842 10.5419 10.1225 10.3322 12.5919 10.0175V9.44056C12.5919 8.33916 12.6887 7.02798 12.0593 6.08392C11.5266 5.24476 10.5583 4.87762 9.68673 4.87762C8.04048 4.87762 6.58791 5.76923 6.24898 7.65735C6.15214 8.07693 5.91004 8.49649 5.52269 8.49649L1.40708 8.02447C1.06814 7.91957 0.680798 7.65734 0.777636 7.08042C1.74602 1.62587 6.24898 0 10.3162 0C12.3982 0 15.1097 0.57692 16.7559 2.30769C18.8379 4.40559 18.6442 7.23777 18.6442 10.2797V17.465C18.6442 19.6154 19.4674 20.5594 20.2421 21.7657C20.5326 22.1853 20.581 22.7098 20.2421 22.972C19.3221 23.7587 17.7727 25.2273 16.9012 26.014Z" fill="#CFCFDE"/>
</svg>
