<svg width="81" height="101" viewBox="0 0 81 101" fill="none" xmlns="http://www.w3.org/2000/svg">
<path d="M1.44043 100.5V0.5H63.021L79.5593 17.0383V100.5H1.44043Z" fill="white" stroke="#D2D2D2"/>
<path d="M66.6234 49.9469C65.4098 47.784 61.2164 47.1044 59.2926 46.7986C57.7762 46.5574 56.2282 46.4854 54.6945 46.4868C53.4902 46.4788 52.3036 46.5381 51.1324 46.6047C50.7006 46.6337 50.2732 46.671 49.8462 46.708C49.4084 46.2549 48.9854 45.7869 48.576 45.3082C45.9709 42.2244 43.8675 38.7272 42.1536 35.0932C42.6087 33.3372 42.9728 31.5047 43.1926 29.6016C43.594 26.1281 43.732 22.1695 42.4304 18.8579C41.981 17.7149 40.7828 16.3235 39.4003 17.0164C37.811 17.8132 37.3639 20.0708 37.2343 21.6712C37.1301 22.9647 37.203 24.2615 37.4202 25.5334C37.6414 26.814 37.9975 28.0299 38.3853 29.2441C38.7471 30.3574 39.1458 31.4621 39.5805 32.5564C39.3047 33.4179 39.0119 34.2643 38.7044 35.0892C37.9875 36.969 37.2123 38.7549 36.4668 40.4728C36.0737 41.3246 35.689 42.1584 35.3125 42.9736C34.1213 45.5903 32.8281 48.1591 31.3766 50.6422C27.9911 51.8364 24.9529 53.2209 22.4298 54.8479C21.0763 55.7224 19.8808 56.6721 18.885 57.7138C17.945 58.6972 16.9896 59.9734 16.9059 61.3862C16.859 62.1837 17.1748 62.9575 17.828 63.4306C18.7265 64.1018 19.9171 64.0572 20.9594 63.8387C24.374 63.1224 26.996 60.1873 29.229 57.7135C30.767 56.0095 32.5176 53.8459 34.3488 51.2291C34.3528 51.2232 34.3568 51.2172 34.3611 51.2112C37.5018 50.2374 40.92 49.4153 44.5478 48.811C46.2051 48.5362 47.9064 48.3113 49.6416 48.1534C50.8619 49.2963 52.1804 50.337 53.6188 51.2062C54.7391 51.8954 55.9307 52.4774 57.1779 52.9114C58.4392 53.3235 59.708 53.66 61.0182 53.8728C61.6798 53.9674 62.3564 54.0104 63.0476 53.9844C64.5904 53.9261 66.8046 53.3345 66.9499 51.4627C66.9945 50.8897 66.8709 50.3873 66.6234 49.9469ZM29.69 53.3815C28.9675 54.5008 28.2706 55.5075 27.614 56.3933C26.006 58.5813 24.1694 61.18 21.5104 62.1517C21.0054 62.3363 20.3405 62.5268 19.6396 62.4855C19.0153 62.4489 18.3997 62.1734 18.428 61.4645C18.442 61.0934 18.6235 60.62 18.902 60.1549C19.2068 59.6449 19.5843 59.1772 19.993 58.7472C20.8688 57.8271 21.9761 56.9353 23.25 56.1095C25.2038 54.8419 27.5363 53.7009 30.1364 52.6829C29.9868 52.9194 29.8376 53.1546 29.69 53.3815ZM38.7584 25.3122C38.5578 24.1416 38.5275 22.9547 38.6508 21.8134C38.7121 21.2428 38.8283 20.6858 38.9966 20.1638C39.1391 19.7207 39.447 18.6394 39.938 18.5005C40.7475 18.2713 40.9963 20.0092 41.0879 20.5009C41.6096 23.2978 41.1499 26.4082 40.5239 29.1518C40.4243 29.5882 40.3134 30.0176 40.1998 30.4454C40.0059 29.912 39.8211 29.377 39.6508 28.8394C39.2844 27.6651 38.9493 26.4772 38.7584 25.3122ZM44.3159 47.3919C41.2745 47.8849 38.3813 48.5308 35.6616 49.2934C35.9891 49.2017 37.4855 46.3658 37.8193 45.7772C39.392 43.0072 40.6785 40.1001 41.6029 37.0503C43.2353 40.2786 45.2164 43.367 47.6502 46.116C47.8744 46.3655 48.1022 46.612 48.3341 46.8555C46.9703 47.0024 45.6281 47.1813 44.3159 47.3919ZM64.8845 51.2874C64.7732 51.8887 63.489 52.2325 62.8897 52.3271C61.1188 52.6056 59.2453 52.3828 57.5504 51.8134C56.3874 51.423 55.2658 50.8914 54.2001 50.2518C53.1408 49.6118 52.1497 48.859 51.2233 48.0288C52.3656 47.9602 53.5219 47.9152 54.6838 47.9372C55.8458 47.9488 57.0167 48.0075 58.1733 48.1584C60.3423 48.4002 62.7728 49.1448 64.4801 50.5522C64.8162 50.8297 64.9235 51.0749 64.8845 51.2874Z" fill="#FB3449"/>
<path d="M65.8328 8.41578H0.94043V0H63.2281L65.8328 8.41578Z" fill="#FB3449"/>
<path d="M32.2539 80.3345C32.2539 82.1204 31.7276 83.4995 30.6742 84.4723C29.6209 85.4453 28.1251 85.9317 26.1864 85.9317H24.9728V91.2341H20.6548V75.251H26.1867C28.2054 75.251 29.7215 75.692 30.7345 76.5738C31.7476 77.4556 32.2539 78.7092 32.2539 80.3345ZM24.9731 82.4115H25.7603C26.4089 82.4115 26.9246 82.2296 27.3073 81.8649C27.6901 81.5004 27.8813 80.9974 27.8813 80.3561C27.8813 79.2775 27.2837 78.7381 26.0884 78.7381H24.9731V82.4115Z" fill="#A4A9AD"/>
<path d="M48.3685 82.9036C48.3685 85.5709 47.634 87.6263 46.1656 89.0694C44.6971 90.5125 42.6324 91.2341 39.9724 91.2341H34.8013V75.251H40.3332C42.8986 75.251 44.879 75.9069 46.2748 77.2188C47.6703 78.5306 48.3685 80.4258 48.3685 82.9036ZM43.8863 83.0568C43.8863 81.5917 43.5965 80.5061 43.0172 79.7988C42.4379 79.0919 41.5577 78.7385 40.3768 78.7385H39.1199V87.6919H40.082C41.3942 87.6919 42.3559 87.3112 42.9682 86.5493C43.5802 85.7881 43.8863 84.6238 43.8863 83.0568Z" fill="#A4A9AD"/>
<path d="M55.4856 91.2341H51.2329V75.251H60.6787V78.7165H55.4856V81.7666H60.274V85.2321H55.4856V91.2341Z" fill="#A4A9AD"/>
<path d="M63.228 16.8312H80.0593L63.228 0V16.8312Z" fill="#D1D3D3"/>
</svg>
