<svg width="46" height="31" viewBox="0 0 46 31" fill="none" xmlns="http://www.w3.org/2000/svg">
<path d="M0.353393 15.0056L0.333985 15.2941C0.333985 16.3699 1.13341 17.259 2.17064 17.3995L2.45899 17.4191L38.431 17.4165L29.3043 26.5381C28.5497 27.2924 28.4806 28.473 29.0974 29.3052L29.3031 29.5434C30.0571 30.2982 31.2377 30.3674 32.0699 29.7503L32.3084 29.5449L45.0584 16.8053C45.813 16.0514 45.8821 14.8707 45.2653 14.0386L45.0596 13.8003L32.3096 1.03952C31.48 0.209322 30.1347 0.208756 29.3043 1.03827C28.5497 1.79236 28.4806 2.9729 29.0974 3.80505L29.3031 4.04347L38.4197 13.1665L2.45898 13.169C1.38317 13.169 0.494096 13.9683 0.353393 15.0056L0.333985 15.2941L0.353393 15.0056Z" fill="#16A3B9"/>
</svg>
