<svg width="481" height="324" viewBox="0 0 481 324" fill="none" xmlns="http://www.w3.org/2000/svg">
<path d="M105.538 0C161.494 0 207.278 43.4966 210.851 98.4852L211.061 107.202C210.656 257.077 158.706 386.057 54.6809 496.086C42.6753 508.787 22.6367 509.36 9.92355 497.368C-2.78998 485.376 -3.36369 465.359 8.64189 452.663C77.9001 379.403 120.945 297.743 138.563 205.605C128.144 208.991 117.056 210.833 105.538 210.833C47.251 210.833 1.39826e-05 163.636 1.39826e-05 105.417C1.39826e-05 47.1967 47.251 0 105.538 0ZM375.475 0C431.431 0 477.213 43.4966 480.789 98.4852L481 107.202C480.595 257.339 428.771 386.078 324.601 496.103C312.587 508.795 292.547 509.352 279.845 497.351C267.138 485.351 266.581 465.334 278.595 452.646C347.963 379.377 390.963 297.827 408.538 205.613C398.081 208.99 386.995 210.833 375.475 210.833C317.188 210.833 269.937 163.636 269.937 105.417C269.937 47.1967 317.188 0 375.475 0Z" fill="black" fill-opacity="0.08"/>
</svg>
