<svg width="62" height="53" viewBox="0 0 62 53" fill="none" xmlns="http://www.w3.org/2000/svg">
<path d="M11.0717 0C16.9418 0 21.7449 4.55596 22.1198 10.3156L22.1418 11.2287C22.0993 26.9271 16.6494 40.4368 5.73641 51.9616C4.47694 53.2919 2.37474 53.352 1.04105 52.0959C-0.292688 50.8398 -0.352875 48.7432 0.906594 47.4133C8.17226 39.7398 12.688 31.1865 14.5363 21.5357C13.4432 21.8903 12.28 22.0833 11.0717 22.0833C4.95696 22.0833 1.48149e-06 17.1398 1.48149e-06 11.0417C1.48149e-06 4.94353 4.95696 0 11.0717 0ZM50.9297 0C56.7999 0 61.6027 4.55596 61.9779 10.3156L62 11.2287C61.9575 26.9545 56.5209 40.439 45.5927 51.9634C44.3323 53.2928 42.23 53.3511 40.8974 52.0941C39.5644 50.8371 39.5059 48.7405 40.7663 47.4116C48.0435 39.7372 52.5545 31.1953 54.3982 21.5365C53.3012 21.8903 52.1382 22.0833 50.9297 22.0833C44.815 22.0833 39.858 17.1398 39.858 11.0417C39.858 4.94353 44.815 0 50.9297 0Z" fill="#BCE01A"/>
</svg>
