<svg width="146" height="125" viewBox="0 0 146 125" fill="none" xmlns="http://www.w3.org/2000/svg">
<path d="M26.072 0C39.8953 0 51.2058 10.7452 52.0885 24.3294L52.1403 26.4828C52.0403 63.5072 39.2066 95.3697 13.5083 122.551C10.5425 125.688 5.59213 125.83 2.4515 122.868C-0.689233 119.905 -0.830963 114.96 2.13488 111.824C19.2444 93.726 29.8781 73.5531 34.2305 50.7916C31.6565 51.6281 28.9175 52.0833 26.072 52.0833C11.6728 52.0833 3.48866e-06 40.424 3.48866e-06 26.0416C3.48866e-06 11.6593 11.6728 0 26.072 0ZM119.931 0C133.755 0 145.065 10.7452 145.948 24.3294L146 26.4828C145.9 63.5718 133.097 95.3749 107.363 122.555C104.395 125.691 99.4448 125.828 96.3068 122.863C93.1677 119.899 93.0301 114.954 95.9981 111.82C113.135 93.7197 123.757 73.5739 128.099 50.7937C125.516 51.6281 122.777 52.0833 119.931 52.0833C105.532 52.0833 93.8592 40.424 93.8592 26.0416C93.8592 11.6593 105.532 0 119.931 0Z" fill="#16A3B9"/>
</svg>
