<svg width="175" height="149" viewBox="0 0 175 149" fill="none" xmlns="http://www.w3.org/2000/svg">
<path d="M31.2507 0C47.8196 0 61.3768 12.8083 62.4348 29.0006L62.497 31.5675C62.3771 75.7006 46.9943 113.681 16.1915 146.081C12.6365 149.821 6.7029 149.989 2.93844 146.458C-0.826136 142.927 -0.996017 137.033 2.55893 133.294C23.0669 111.721 35.8128 87.6753 41.0297 60.5436C37.9444 61.5407 34.6614 62.0833 31.2507 62.0833C13.9914 62.0833 4.18162e-06 48.1854 4.18162e-06 31.0416C4.18162e-06 13.8978 13.9914 0 31.2507 0ZM143.753 0C160.322 0 173.879 12.8083 174.937 29.0006L175 31.5675C174.88 75.7776 159.535 113.687 128.689 146.086C125.131 149.823 119.198 149.987 115.436 146.453C111.674 142.919 111.509 137.025 115.066 133.289C135.607 111.714 148.339 87.7001 153.543 60.5461C150.447 61.5407 147.164 62.0833 143.753 62.0833C126.494 62.0833 112.502 48.1854 112.502 31.0416C112.502 13.8978 126.494 0 143.753 0Z" fill="#BFE1E7"/>
</svg>
