<svg width="59" height="59" viewBox="0 0 59 59" fill="none" xmlns="http://www.w3.org/2000/svg">
<path d="M24.5827 6.76025C34.4261 6.76025 42.4056 14.7399 42.4056 24.5832C42.4056 28.8408 40.9127 32.7495 38.4219 35.8148L50.4697 47.8628C51.1897 48.5829 51.1897 49.7501 50.4697 50.4702C49.8153 51.1248 48.7909 51.1843 48.0691 50.6486L47.8624 50.4702L35.8143 38.4224C32.749 40.9131 28.8403 42.4061 24.5827 42.4061C14.7394 42.4061 6.75977 34.4266 6.75977 24.5832C6.75977 14.7399 14.7394 6.76025 24.5827 6.76025ZM24.5827 10.4478C16.7759 10.4478 10.4473 16.7764 10.4473 24.5832C10.4473 32.3899 16.7759 38.7186 24.5827 38.7186C32.3894 38.7186 38.7181 32.3899 38.7181 24.5832C38.7181 16.7764 32.3894 10.4478 24.5827 10.4478Z" fill="#16A3B9"/>
</svg>
