<svg width="0" height="0" class="hidden">
  <symbol xmlns="http://www.w3.org/2000/svg" viewBox="0 0 17 27" id="ic_accord_arr">
    <path d="M16.1271 12.7441C16.5876 13.1428 16.5876 13.8572 16.1271 14.2559L2.15465 26.3564C1.50701 26.9173 0.500001 26.4573 0.500001 25.6005L0.500002 1.39948C0.500002 0.542729 1.50701 0.0826764 2.15466 0.643553L16.1271 12.7441Z" fill="currentColor"></path>
  </symbol>
  <symbol xmlns="http://www.w3.org/2000/svg" viewBox="0 0 66 66" id="ic_check">
    <path d="M32.588 0.580078C50.5371 0.580078 65.088 15.1308 65.088 33.0801C65.088 51.0292 50.5371 65.5801 32.588 65.5801C14.6387 65.5801 0.0879517 51.0292 0.0879517 33.0801C0.0879517 15.1308 14.6387 0.580078 32.588 0.580078ZM43.052 23.2315L28.5255 37.7578L22.124 31.3566C21.1721 30.4047 19.6288 30.4047 18.6769 31.3566C17.725 32.3085 17.725 33.8516 18.6769 34.8036L26.802 42.9286C27.7539 43.8805 29.297 43.8805 30.2489 42.9286L46.4989 26.6786C47.4509 25.7268 47.4509 24.1834 46.4989 23.2315C45.547 22.2796 44.0039 22.2796 43.052 23.2315Z" fill="currentColor"></path>
  </symbol>
  <symbol xmlns="http://www.w3.org/2000/svg" viewBox="0 0 40 40" id="ic_check2">
    <path d="M28.6801 0C35.4601 0 40.0001 4.76 40.0001 11.84V28.182C40.0001 35.24 35.4601 40 28.6801 40H11.3401C4.56006 40 6.10352e-05 35.24 6.10352e-05 28.182V11.84C6.10352e-05 4.76 4.56006 0 11.3401 0H28.6801ZM28.3601 14C27.6801 13.32 26.5601 13.32 25.8801 14L17.6201 22.26L14.1201 18.76C13.4401 18.08 12.3201 18.08 11.6401 18.76C10.9601 19.44 10.9601 20.54 11.6401 21.24L16.4001 25.98C16.7401 26.32 17.1801 26.48 17.6201 26.48C18.0801 26.48 18.5201 26.32 18.8601 25.98L28.3601 16.48C29.0401 15.8 29.0401 14.7 28.3601 14Z" fill="currentColor"></path>
  </symbol>
  <symbol xmlns="http://www.w3.org/2000/svg" viewBox="0 0 40 40" id="ic_close">
    <path fill-rule="evenodd" clip-rule="evenodd" d="M7.15465 30.488C6.50379 31.1388 6.50379 32.1942 7.15465 32.845C7.80554 33.4958 8.8608 33.4958 9.51169 32.845L19.9998 22.3568L30.488 32.845C31.1388 33.4958 32.1942 33.4958 32.845 32.845C33.4958 32.1942 33.4958 31.1388 32.845 30.488L22.3568 19.9998L32.845 9.51169C33.4958 8.8608 33.4958 7.80554 32.845 7.15465C32.1942 6.50379 31.1388 6.50379 30.488 7.15465L19.9998 17.6428L9.51169 7.15465C8.8608 6.50379 7.80554 6.50379 7.15465 7.15465C6.50379 7.80554 6.50379 8.8608 7.15465 9.51169L17.6428 19.9998L7.15465 30.488Z" fill="currentColor"></path>
  </symbol>
  <symbol xmlns="http://www.w3.org/2000/svg" viewBox="0 0 24 16" id="ic_menu">
    <rect x="0.785645" y="0.666504" width="22.4524" height="2.92857" rx="1.46428" fill="currentColor"></rect>
    <rect x="0.785645" y="12.3809" width="22.4524" height="2.92857" rx="1.46428" fill="currentColor"></rect>
    <rect x="10.5476" y="6.52344" width="12.6905" height="2.92857" rx="1.46428" fill="currentColor"></rect>
  </symbol>
  <symbol xmlns="http://www.w3.org/2000/svg" viewBox="0 0 39 39" id="ic_question">
    <path d="M19.4998 0C30.2696 0 38.9998 8.7321 38.9998 19.5C38.9998 30.2679 30.2696 39 19.4998 39C8.72991 39 -0.000244141 30.2679 -0.000244141 19.5C-0.000244141 8.7321 8.72991 0 19.4998 0ZM19.4998 3.25065C10.5395 3.25065 3.25041 10.5398 3.25041 19.5C3.25041 28.4603 10.5395 35.7494 19.4998 35.7494C28.46 35.7494 35.7491 28.4603 35.7491 19.5C35.7491 10.5398 28.46 3.25065 19.4998 3.25065ZM19.4998 26.325C20.5767 26.325 21.4498 27.198 21.4498 28.275C21.4498 29.352 20.5767 30.225 19.4998 30.225C18.4228 30.225 17.5498 29.352 17.5498 28.275C17.5498 27.198 18.4228 26.325 19.4998 26.325ZM19.4998 9.2625C22.4614 9.2625 24.8623 11.6634 24.8623 14.625C24.8623 16.5961 24.2821 17.6943 22.8126 19.2243L22.4838 19.5591C21.2711 20.7718 20.9623 21.2868 20.9623 22.425C20.9623 23.2327 20.3074 23.8875 19.4998 23.8875C18.6921 23.8875 18.0373 23.2327 18.0373 22.425C18.0373 20.4539 18.6174 19.3557 20.0869 17.8257L20.4157 17.4909C21.6284 16.2782 21.9373 15.7632 21.9373 14.625C21.9373 13.2788 20.846 12.1875 19.4998 12.1875C18.2377 12.1875 17.1997 13.1466 17.0749 14.3758L17.0623 14.625C17.0623 15.4327 16.4074 16.0875 15.5998 16.0875C14.792 16.0875 14.1373 15.4327 14.1373 14.625C14.1373 11.6634 16.5381 9.2625 19.4998 9.2625Z" fill="currentColor"></path>
  </symbol>
  <symbol xmlns="http://www.w3.org/2000/svg" viewBox="0 0 24 22" id="ic_star">
    <path d="M11.9875 0L16.0742 6.36261L23.3883 8.28316L18.6 14.136L19.0336 21.6856L11.9875 18.9403L4.94142 21.6856L5.37504 14.136L0.58671 8.28316L7.90078 6.36261L11.9875 0Z" fill="currentColor"></path>
  </symbol>
  <symbol xmlns="http://www.w3.org/2000/svg" viewBox="0 0 33 39" id="ic_video_play">
    <path d="M32.4885 18.7231C33.1347 19.1117 33.1347 20.0484 32.4885 20.437L2.03734 38.7505C1.37084 39.1514 0.521959 38.6713 0.521959 37.8936L0.521961 1.26648C0.521961 0.488719 1.37084 0.00867153 2.03734 0.409513L32.4885 18.7231Z" fill="currentColor"></path>
  </symbol>
  <symbol xmlns="http://www.w3.org/2000/svg" viewBox="0 0 21 25"  id="ic_play">
    <path d="M19.5751 11.7264C20.2212 12.115 20.2212 13.0517 19.5751 13.4403L1.51538 24.3015C0.848874 24.7024 -3.05356e-06 24.2223 -3.01957e-06 23.4446L-2.07005e-06 1.72212C-2.03605e-06 0.94436 0.848873 0.464315 1.51538 0.865156L19.5751 11.7264Z" fill="fff"/>
  </symbol>
  <symbol xmlns="http://www.w3.org/2000/svg" viewBox="0 0 20 26" id="ic_pause">
    <path d="M7.67072 3.73441C7.67072 1.81973 6.11857 0.267578 4.20389 0.267578C2.28921 0.267578 0.737061 1.81973 0.737061 3.73441V22.2242C0.737061 24.1388 2.28921 25.691 4.20389 25.691C6.11857 25.691 7.67072 24.1388 7.67072 22.2242V3.73441Z" fill="fff"/>
    <path d="M6.51404 3.73432C6.51404 2.45786 5.47927 1.4231 4.20282 1.4231C2.92637 1.4231 1.8916 2.45786 1.8916 3.73432V22.2241C1.8916 23.5005 2.92637 24.5353 4.20282 24.5353C5.47927 24.5353 6.51404 23.5005 6.51404 22.2241V3.73432Z"/>
    <path d="M19.2264 3.73441C19.2264 1.81973 17.6742 0.267578 15.7596 0.267578C13.8449 0.267578 12.2927 1.81973 12.2927 3.73441V22.2242C12.2927 24.1388 13.8449 25.691 15.7596 25.691C17.6742 25.691 19.2264 24.1388 19.2264 22.2242V3.73441Z" fill="fff"/>
    <path d="M18.0697 3.73432C18.0697 2.45786 17.0349 1.4231 15.7585 1.4231C14.482 1.4231 13.4473 2.45786 13.4473 3.73432V22.2241C13.4473 23.5005 14.482 24.5353 15.7585 24.5353C17.0349 24.5353 18.0697 23.5005 18.0697 22.2241V3.73432Z"/>
  </symbol>
  <symbol viewBox="0 0 40 40" xmlns="http://www.w3.org/2000/svg" id="ic_check3">
    <path fill-rule="evenodd" clip-rule="evenodd" d="M40 11.84C40 4.76 35.46 0 28.68 0H11.34C4.56 0 0 4.76 0 11.84V28.182C0 35.24 4.56 40 11.34 40H28.68C35.46 40 40 35.24 40 28.182V11.84ZM32 20C32 26.6274 26.6274 32 20 32C13.3726 32 8 26.6274 8 20C8 13.3726 13.3726 8 20 8C26.6274 8 32 13.3726 32 20ZM26 20C26 19.1716 25.3284 18.5 24.5 18.5H15.5C14.6716 18.5 14 19.1716 14 20C14 20.8284 14.6716 21.5 15.5 21.5H24.5C25.3284 21.5 26 20.8284 26 20Z" fill="#D62B2B"/>
  </symbol>
  <symbol width="70" height="70" viewBox="0 0 70 70" id="result1" xmlns="http://www.w3.org/2000/svg">
    <path d="M38.017 19.3692C41.5011 15.8852 47.15 15.8852 50.6341 19.3692C54.1182 22.8531 54.1182 28.5017 50.6341 31.9857C47.15 35.4696 41.5011 35.4696 38.017 31.9857C34.5328 28.5017 34.5328 22.8531 38.017 19.3692ZM46.8488 23.1541C45.4552 21.7606 43.1958 21.7605 41.8019 23.1541C40.4083 24.5477 40.4083 26.8072 41.8019 28.2007C43.1958 29.5944 45.4552 29.5944 46.8488 28.2007C48.2427 26.8072 48.2427 24.5477 46.8488 23.1541ZM68.1774 8.27615C67.2182 5.19012 64.8011 2.77411 61.7145 1.81626L59.3517 1.08304C50.81 -1.56774 41.5029 0.731863 35.1784 7.05562L31.6247 10.6094C26.7364 6.93871 19.7665 7.32711 15.3188 11.7746L10.8846 16.2085C9.83934 17.2537 9.83934 18.9483 10.8846 19.9935L16.5623 25.6709L15.9206 26.3125C13.4817 28.7512 13.4817 32.7055 15.9206 35.1442L17.6884 36.9116L12.708 39.7521C11.9831 40.1654 11.4925 40.8933 11.3814 41.7205C11.2702 42.5477 11.5513 43.3792 12.1415 43.9694L26.0205 57.8476C26.6102 58.4371 27.4411 58.7183 28.2676 58.608C29.0945 58.4974 29.8222 58.0078 30.2365 57.2841L33.084 52.3064L34.8583 54.0803C37.2972 56.5194 41.2513 56.5194 43.6901 54.0803L44.3211 53.4498L49.9939 59.1223C51.0391 60.1671 52.7339 60.1671 53.7792 59.1223L58.2133 54.6881C62.6591 50.2424 63.0492 43.2764 59.3827 38.389L62.9439 34.8276C69.2705 28.5016 71.5695 19.1902 68.914 10.6467L68.1774 8.27615ZM60.1279 6.92844C61.5307 7.36383 62.6295 8.46203 63.0656 9.86477L63.8022 12.2354C65.8674 18.8803 64.0795 26.1224 59.159 31.0429L39.9052 50.2956C39.5565 50.6439 38.9916 50.6439 38.6433 50.2956L19.7058 31.3591C19.3574 31.0108 19.3574 30.4459 19.7058 30.0976L38.9637 10.8406C43.8825 5.92212 51.1216 4.13353 57.765 6.19522L60.1279 6.92844ZM55.5282 42.2433C57.143 44.9757 56.7765 48.5549 54.428 50.9033L51.8863 53.4448L48.1064 49.6647L55.5282 42.2433ZM19.104 15.5595C21.454 13.2097 25.0371 12.8442 27.7705 14.4632L20.3475 21.8859L16.5624 18.101L19.104 15.5595ZM29.1609 48.3836L27.3291 51.586L18.4066 42.6644L21.6126 40.8359L29.1609 48.3836ZM15.2939 58.4921C16.3391 57.4469 16.3391 55.7522 15.2939 54.707C14.2486 53.6618 12.554 53.6618 11.5087 54.707L2.67665 63.5386C1.63141 64.5838 1.63141 66.2785 2.67665 67.3237C3.72192 68.3689 5.41658 68.3689 6.46182 67.3237L15.2939 58.4921ZM8.35429 47.768C9.39953 48.8133 9.39953 50.5079 8.35429 51.5531L4.56912 55.3379C3.52385 56.3831 1.82919 56.3831 0.783953 55.3379C-0.261318 54.2927 -0.261318 52.598 0.783953 51.5531L4.56912 47.768C5.61436 46.7228 7.30902 46.7228 8.35429 47.768ZM22.2261 65.4385C23.2714 64.3933 23.2714 62.699 22.2262 61.6537C21.181 60.6085 19.4863 60.6085 18.441 61.6537L14.6632 65.431C13.6179 66.4762 13.6179 68.1709 14.6631 69.2161C15.7084 70.2613 17.403 70.2613 18.4483 69.2161L22.2261 65.4385Z" fill="#B4D326"/>
  </symbol>
  <symbol width="78" height="70" viewBox="0 0 78 70" id="result2" xmlns="http://www.w3.org/2000/svg">
    <path d="M49.7131 46.6433C53.4816 46.6433 56.5365 49.6888 56.5365 53.4455L56.5322 57.1851C56.9872 65.694 50.6407 70 39.2512 70C27.909 70 21.4449 65.764 21.4449 57.3324V53.4455C21.4449 49.6888 24.4998 46.6433 28.2683 46.6433H49.7131ZM49.7131 52.4738H28.2683C27.7299 52.4738 27.2935 52.9087 27.2935 53.4455V57.3324C27.2935 61.9043 30.7507 64.1696 39.2512 64.1696C47.7039 64.1696 50.9316 61.9793 50.6879 57.3402V53.4455C50.6879 52.9087 50.2516 52.4738 49.7131 52.4738ZM6.82337 27.2086L23.8857 27.209C23.565 28.4513 23.3944 29.7534 23.3944 31.0956C23.3944 31.7528 23.4353 32.4008 23.5148 33.0363L6.82337 33.039C6.28503 33.039 5.8486 33.474 5.8486 34.0108V37.8977C5.8486 42.4695 9.30579 44.7349 17.8062 44.7349C19.6072 44.7349 21.171 44.6357 22.5146 44.4344C20.3109 45.8259 18.6588 47.9999 17.9405 50.5622L17.8062 50.5653C6.46411 50.5653 0 46.3293 0 37.8977V34.0108C0 30.254 3.05492 27.2086 6.82337 27.2086ZM71.158 27.2086C74.9265 27.2086 77.9814 30.254 77.9814 34.0108L77.9771 37.7504C78.4321 46.2593 72.0856 50.5653 60.696 50.5653L60.0398 50.5587C59.3013 47.9268 57.5776 45.7054 55.29 44.3143C56.7977 44.5961 58.5925 44.7349 60.696 44.7349C69.1488 44.7349 72.3765 42.5446 72.1328 37.9055V34.0108C72.1328 33.474 71.6965 33.039 71.158 33.039L54.4669 33.0359C54.546 32.4004 54.587 31.7528 54.587 31.0956C54.587 29.7534 54.4166 28.4513 54.0957 27.209L71.158 27.2086ZM38.9907 19.4347C45.4511 19.4347 50.6879 24.6555 50.6879 31.0956C50.6879 37.5358 45.4511 42.7564 38.9907 42.7564C32.5303 42.7564 27.2935 37.5358 27.2935 31.0956C27.2935 24.6555 32.5303 19.4347 38.9907 19.4347ZM38.9907 25.2651C35.7607 25.2651 33.1421 27.8756 33.1421 31.0956C33.1421 34.3155 35.7607 36.926 38.9907 36.926C42.2207 36.926 44.8393 34.3155 44.8393 31.0956C44.8393 27.8756 42.2207 25.2651 38.9907 25.2651ZM17.5458 0C24.006 0 29.243 5.22075 29.243 11.6608C29.243 18.1009 24.006 23.3217 17.5458 23.3217C11.0856 23.3217 5.8486 18.1009 5.8486 11.6608C5.8486 5.22075 11.0856 0 17.5458 0ZM60.4356 0C66.896 0 72.1328 5.22075 72.1328 11.6608C72.1328 18.1009 66.896 23.3217 60.4356 23.3217C53.9752 23.3217 48.7384 18.1009 48.7384 11.6608C48.7384 5.22075 53.9752 0 60.4356 0ZM17.5458 5.83042C14.3157 5.83042 11.6972 8.44077 11.6972 11.6608C11.6972 14.8809 14.3157 17.4913 17.5458 17.4913C20.7759 17.4913 23.3944 14.8809 23.3944 11.6608C23.3944 8.44077 20.7759 5.83042 17.5458 5.83042ZM60.4356 5.83042C57.2056 5.83042 54.587 8.44077 54.587 11.6608C54.587 14.8809 57.2056 17.4913 60.4356 17.4913C63.6656 17.4913 66.2842 14.8809 66.2842 11.6608C66.2842 8.44077 63.6656 5.83042 60.4356 5.83042Z" fill="#B4D326"/>
  </symbol>
  <symbol width="55" height="75" viewBox="0 0 55 75" id="result3" xmlns="http://www.w3.org/2000/svg">
    <path d="M0 2.8125C0 1.25921 1.27369 0 2.84483 0H6.1322C7.70334 0 8.97703 1.25921 8.97703 2.8125C8.97703 4.36579 7.70334 5.625 6.1322 5.625H2.84483C1.27369 5.625 0 4.36579 0 2.8125ZM13.1494 2.8125C13.1494 1.25921 14.4231 0 15.9943 0H22.569C24.1401 0 25.4138 1.25921 25.4138 2.8125C25.4138 4.36579 24.1401 5.625 22.569 5.625H15.9943C14.4231 5.625 13.1494 4.36579 13.1494 2.8125ZM29.5862 2.8125C29.5862 1.25921 30.8599 0 32.431 0H39.0056C40.5767 0 41.8504 1.25921 41.8504 2.8125C41.8504 4.36579 40.5767 5.625 39.0056 5.625H32.431C30.8599 5.625 29.5862 4.36579 29.5862 2.8125ZM46.0229 2.8125C46.0229 1.25921 47.2966 0 48.8677 0H52.1552C53.7263 0 55 1.25921 55 2.8125C55 4.36579 53.7263 5.625 52.1552 5.625H48.8677C47.2966 5.625 46.0229 4.36579 46.0229 2.8125ZM0 72.1875C0 70.6342 1.27369 69.375 2.84483 69.375H52.1552C53.7263 69.375 55 70.6342 55 72.1875C55 73.7408 53.7263 75 52.1552 75H2.84483C1.27369 75 0 73.7408 0 72.1875ZM29.5115 12.0738C28.4005 10.9754 26.5995 10.9754 25.4885 12.0738L6.52289 30.8239C5.41192 31.9222 5.41192 33.7028 6.52289 34.8011C7.63385 35.8995 9.43512 35.8995 10.5461 34.8011L24.6552 20.8525V60.9375C24.6552 62.4907 25.9289 63.75 27.5 63.75C29.0711 63.75 30.3448 62.4907 30.3448 60.9375V20.8525L44.454 34.8011C45.565 35.8995 47.366 35.8995 48.477 34.8011C49.588 33.7028 49.588 31.9222 48.477 30.8239L29.5115 12.0738Z" fill="#B4D326"/>
  </symbol>
  <symbol width="57" height="71" viewBox="0 0 57 71" id="result4" xmlns="http://www.w3.org/2000/svg">
    <path d="M48.9841 42.5966C53.4114 42.5966 57 46.1727 57 50.5838V53.7969C57 57.6794 55.2992 61.3684 52.3426 63.8974C46.7657 68.6681 38.7844 71 28.4884 71C18.1941 71 10.2181 68.6691 4.65017 63.8991C1.69812 61.3702 0 57.684 0 53.8047V50.5838C0 46.1727 3.58883 42.5966 8.01588 42.5966H48.9841ZM48.9841 47.9214H8.01588C6.54017 47.9214 5.34392 49.1135 5.34392 50.5838V53.8047C5.34392 56.1323 6.36279 58.3439 8.13402 59.8615C12.6161 63.7011 19.3709 65.6752 28.4884 65.6752C37.6083 65.6752 44.3698 63.7 48.8619 59.8572C50.6354 58.3397 51.6561 56.1263 51.6561 53.7969V50.5838C51.6561 49.1135 50.4598 47.9214 48.9841 47.9214ZM28.1268 0.0243168L28.4895 0C29.8422 0 30.9601 1.0016 31.1369 2.30115L31.1614 2.66242L31.1586 5.32129L43.6295 5.3231C48.0564 5.3231 51.6454 8.89912 51.6454 13.3104V29.3012C51.6454 33.7123 48.0564 37.2884 43.6295 37.2884H13.3472C8.92011 37.2884 5.33127 33.7123 5.33127 29.3012V13.3104C5.33127 8.89912 8.92011 5.3231 13.3472 5.3231L25.8147 5.32129L25.8175 2.66242C25.8175 1.31453 26.8225 0.200604 28.1268 0.0243168L28.4895 0L28.1268 0.0243168ZM43.6295 10.6479H13.3472C11.8715 10.6479 10.6752 11.8399 10.6752 13.3104V29.3012C10.6752 30.7715 11.8715 31.9636 13.3472 31.9636H43.6295C45.1051 31.9636 46.3015 30.7715 46.3015 29.3012V13.3104C46.3015 11.8399 45.1051 10.6479 43.6295 10.6479ZM20.4699 15.9728C22.9279 15.9728 24.9204 17.9583 24.9204 20.4076C24.9204 22.8569 22.9279 24.8424 20.4699 24.8424C18.0118 24.8424 16.0191 22.8569 16.0191 20.4076C16.0191 17.9583 18.0118 15.9728 20.4699 15.9728ZM36.4758 15.9728C38.934 15.9728 40.9266 17.9583 40.9266 20.4076C40.9266 22.8569 38.934 24.8424 36.4758 24.8424C34.0176 24.8424 32.025 22.8569 32.025 20.4076C32.025 17.9583 34.0176 15.9728 36.4758 15.9728Z" fill="#B4D326"/>
  </symbol>





</svg>