<svg width="31" height="31" viewBox="0 0 31 31" fill="none" xmlns="http://www.w3.org/2000/svg">
<path d="M4.70007 5.10022C10.6095 -0.809216 20.1907 -0.80927 26.1002 5.10022C32.0097 11.0097 32.0097 20.5909 26.1002 26.5004C20.1907 32.4099 10.6095 32.4098 4.70007 26.5004C-1.20942 20.5909 -1.20942 11.0097 4.70007 5.10022ZM10.0501 10.4503C9.64383 10.8565 9.60996 11.4942 9.94849 11.9391L10.0501 12.0553L13.7951 15.8003L10.0501 19.5453C9.6069 19.9885 9.60691 20.7071 10.0501 21.1503C10.4564 21.5566 11.0941 21.5905 11.539 21.2519L11.6551 21.1503L15.4001 17.4053L19.1452 21.1503C19.5884 21.5935 20.307 21.5935 20.7502 21.1503C21.1565 20.744 21.1903 20.1063 20.8518 19.6615L20.7502 19.5453L17.0052 15.8003L20.7502 12.0553C21.1934 11.6121 21.1934 10.8935 20.7502 10.4503C20.3439 10.044 19.7062 10.0102 19.2614 10.3486L19.1452 10.4503L15.4001 14.1953L11.6551 10.4503C11.2119 10.007 10.4933 10.0071 10.0501 10.4503Z" fill="#E24040"/>
</svg>
