<svg width="75" height="74" viewBox="0 0 75 74" fill="none" xmlns="http://www.w3.org/2000/svg">
<rect width="74.0143" height="74.0001" rx="10.4799" fill="#436EAB"/>
<path d="M49.9523 39.8784C51.2006 41.097 52.5182 42.2433 53.638 43.5849C54.1326 44.181 54.6008 44.7962 54.959 45.4881C55.4666 46.4715 55.0068 47.5537 54.1249 47.6124L48.6422 47.6099C47.2281 47.7271 46.1 47.1581 45.1515 46.1914C44.3924 45.4183 43.6894 44.5955 42.9596 43.7965C42.6602 43.4699 42.3471 43.1626 41.9729 42.9196C41.2245 42.4339 40.5748 42.5826 40.1471 43.363C39.7115 44.1568 39.6126 45.0358 39.5698 45.9205C39.5111 47.2113 39.1209 47.5507 37.8241 47.6097C35.0526 47.7404 32.4223 47.3213 29.9787 45.9234C27.8245 44.6911 26.154 42.9514 24.6999 40.9818C21.869 37.1469 19.701 32.9328 17.7526 28.6007C17.314 27.6247 17.6347 27.1008 18.7119 27.0822C20.5005 27.0474 22.2888 27.0499 24.0796 27.0797C24.8065 27.0903 25.2878 27.5072 25.5685 28.1938C26.5362 30.5728 27.7202 32.8361 29.2064 34.934C29.6024 35.4925 30.0059 36.0512 30.5806 36.4443C31.2164 36.8796 31.7005 36.7352 31.9997 36.0271C32.1894 35.5781 32.2725 35.0944 32.3153 34.6136C32.4571 32.9591 32.4757 31.3074 32.2272 29.6587C32.0746 28.6298 31.4949 27.9637 30.468 27.769C29.944 27.6697 30.022 27.4747 30.2758 27.1757C30.7163 26.66 31.1308 26.3389 31.9571 26.3389H38.1534C39.1289 26.5313 39.3455 26.9695 39.4791 27.9508L39.4844 34.8323C39.4737 35.2121 39.6742 36.3395 40.3585 36.591C40.9064 36.77 41.2674 36.3319 41.5961 35.9846C43.0796 34.4104 44.1385 32.5498 45.0844 30.6233C45.5042 29.7762 45.8652 28.8966 46.2149 28.0175C46.4741 27.3653 46.8808 27.0444 47.6157 27.0586L53.5792 27.0639C53.7561 27.0639 53.935 27.0664 54.1062 27.0957C55.1112 27.267 55.3866 27.6992 55.0762 28.6803C54.5872 30.2195 53.6357 31.5023 52.7052 32.791C51.7108 34.1668 50.6471 35.4955 49.6609 36.8796C48.7548 38.1436 48.8266 38.7806 49.9523 39.8784Z" fill="white"/>
</svg>
