<svg width="75" height="74" viewBox="0 0 75 74" fill="none" xmlns="http://www.w3.org/2000/svg">
<rect x="0.648438" width="74.0143" height="74.0001" rx="10.4799" fill="#D8362A"/>
<path d="M56.7108 28.7392C56.7108 28.7392 56.3215 25.9496 55.2185 24.717C53.791 23.0952 52.1688 23.0952 51.455 23.0303C46.1993 22.6411 38.283 22.5762 38.283 22.5762C38.283 22.5762 30.3668 22.6411 25.111 23.0303C24.3972 23.0952 22.7751 23.1601 21.3475 24.717C20.1796 25.9497 19.8552 28.7392 19.8552 28.7392C19.8552 28.7392 19.4658 32.0478 19.4658 35.3565V38.4055C19.4658 41.7142 19.8552 44.9579 19.8552 44.9579C19.8552 44.9579 20.2445 47.7476 21.3475 48.9802C22.7751 50.602 24.6568 50.5372 25.5003 50.7318C28.4851 51.056 38.283 51.1209 38.283 51.1209C38.283 51.1209 46.1993 51.1209 51.455 50.6669C52.1688 50.6019 53.791 50.537 55.2185 48.98C56.3215 47.7475 56.7108 44.9578 56.7108 44.9578C56.7108 44.9578 57.1002 41.6493 57.1002 38.4055V35.3564C57.1002 32.0478 56.7108 28.7392 56.7108 28.7392Z" fill="white"/>
<path d="M33.7412 30.2959V44.3737L46.0697 37.4971L33.7412 30.2959Z" fill="#D8362A"/>
</svg>
